<svg width="25" height="23" viewBox="0 0 25 23" fill="none" xmlns="http://www.w3.org/2000/svg">
<path d="M24.4453 11.5C24.4453 12.2656 23.8438 12.8672 23.1328 12.8672H4.53906L11.8125 19.7578C12.3594 20.25 12.3594 21.125 11.8672 21.6172C11.375 22.1641 10.5547 22.1641 10.0078 21.6719L0.382812 12.4844C0.109375 12.2109 0 11.8828 0 11.5C0 11.1719 0.109375 10.8438 0.382812 10.5703L10.0078 1.38281C10.5547 0.890625 11.375 0.890625 11.8672 1.4375C12.3594 1.92969 12.3594 2.80469 11.8125 3.29688L4.53906 10.1875H23.1328C23.8984 10.1875 24.4453 10.7891 24.4453 11.5Z" fill="#020708"/>
</svg>
