<svg width="20" height="23" viewBox="0 0 20 23" fill="none" xmlns="http://www.w3.org/2000/svg">
<path d="M6.53125 3.5H12.7188V1.78125C12.7188 1.22266 13.1484 0.75 13.75 0.75C14.3086 0.75 14.7812 1.22266 14.7812 1.78125V3.5H16.5C18.0039 3.5 19.25 4.74609 19.25 6.25V20C19.25 21.5469 18.0039 22.75 16.5 22.75H2.75C1.20312 22.75 0 21.5469 0 20V6.25C0 4.74609 1.20312 3.5 2.75 3.5H4.46875V1.78125C4.46875 1.22266 4.89844 0.75 5.5 0.75C6.05859 0.75 6.53125 1.22266 6.53125 1.78125V3.5ZM2.0625 20C2.0625 20.3867 2.36328 20.6875 2.75 20.6875H16.5C16.8438 20.6875 17.1875 20.3867 17.1875 20V9H2.0625V20Z" fill="#828282"/>
</svg>
