<svg width="16" height="17" viewBox="0 0 16 17" fill="none" xmlns="http://www.w3.org/2000/svg">
<path d="M1.43751 11.7685C1.55683 11.3509 1.79547 10.9631 2.09376 10.6648L11.1619 1.5966C11.9077 0.850864 13.1307 0.850864 13.8764 1.5966L15.0398 2.75995C15.1293 2.84944 15.2188 2.96876 15.2784 3.05825C15.7855 3.80399 15.696 4.81819 15.0398 5.47444L5.9716 14.5426C5.94177 14.5725 5.88211 14.6023 5.85228 14.6619C5.55399 14.9006 5.22586 15.0796 4.86791 15.1989L1.25853 16.2429C1.0199 16.3324 0.751432 16.2727 0.572454 16.0639C0.363647 15.885 0.303988 15.6165 0.363647 15.3779L1.43751 11.7685ZM2.12359 14.5128L4.4503 13.8267C4.50995 13.7969 4.59944 13.7671 4.6591 13.7372L3.58524 13.5284C3.3466 13.4688 3.1378 13.2898 3.10797 13.0511L2.89916 11.9773C2.86933 12.0369 2.8395 12.1264 2.80967 12.1861L2.12359 14.5128ZM5.73297 12.7529L11.7884 6.69745L9.9091 4.84802L3.88353 10.9034L4.18183 12.4247L5.73297 12.7529Z" fill="white"/>
</svg>
