<svg width="24" height="19" viewBox="0 0 24 19" fill="none" xmlns="http://www.w3.org/2000/svg">
<path d="M5.77344 4.01953C7.35547 2.82422 9.32422 1.875 11.75 1.875C14.5625 1.875 16.8477 3.17578 18.5 4.72266C20.1523 6.23438 21.2422 8.0625 21.7695 9.32812C21.875 9.60938 21.875 9.92578 21.7695 10.207C21.3125 11.332 20.3633 12.9492 18.957 14.3555L22.6484 17.2734C23.0352 17.5547 23.1055 18.082 22.7891 18.4336C22.5078 18.8203 21.9805 18.8906 21.6289 18.5742L0.816406 2.26172C0.429688 1.98047 0.359375 1.45312 0.675781 1.10156C0.957031 0.714844 1.48438 0.644531 1.83594 0.960938L5.77344 4.01953ZM7.14453 5.10938L8.76172 6.375C9.57031 5.67188 10.5898 5.25 11.75 5.25C14.2109 5.25 16.25 7.28906 16.25 9.75C16.25 10.5234 16.0391 11.2266 15.7227 11.8242L17.6211 13.3008C18.8164 12.1055 19.6602 10.7344 20.1172 9.75C19.625 8.69531 18.7109 7.21875 17.3398 5.95312C15.8984 4.61719 14.0352 3.5625 11.75 3.5625C9.95703 3.5625 8.41016 4.19531 7.14453 5.10938ZM14.3516 10.7695C14.4922 10.4531 14.5625 10.1016 14.5625 9.75C14.5625 8.20312 13.2969 6.9375 11.75 6.9375C11.7148 6.9375 11.6797 6.9375 11.6445 6.9375C11.7148 7.14844 11.75 7.32422 11.75 7.5C11.75 7.88672 11.6445 8.20312 11.5039 8.51953L14.3516 10.7695ZM14.7031 15.3398L16.1797 16.5C14.8789 17.2031 13.4023 17.625 11.75 17.625C8.90234 17.625 6.61719 16.3594 4.96484 14.8125C3.3125 13.2656 2.22266 11.4375 1.69531 10.207C1.58984 9.92578 1.58984 9.60938 1.69531 9.32812C2.04688 8.51953 2.60938 7.5 3.41797 6.44531L4.71875 7.5C4.08594 8.30859 3.62891 9.11719 3.34766 9.75C3.83984 10.8047 4.75391 12.3164 6.125 13.582C7.56641 14.918 9.42969 15.9375 11.75 15.9375C12.8047 15.9375 13.7891 15.7266 14.7031 15.3398ZM7.25 9.75C7.25 9.67969 7.25 9.57422 7.25 9.46875L9.21875 11.0156C9.57031 11.7539 10.2734 12.3164 11.1172 12.4922L13.0859 14.0742C12.6641 14.1797 12.207 14.25 11.7148 14.25C9.25391 14.25 7.21484 12.2461 7.21484 9.75H7.25Z" fill="#999999"/>
</svg>
