<svg width="21" height="17" viewBox="0 0 21 17" fill="none" xmlns="http://www.w3.org/2000/svg">
<path d="M6.375 8.75C6.375 6.28906 8.37891 4.25 10.875 4.25C13.3359 4.25 15.375 6.28906 15.375 8.75C15.375 11.2461 13.3359 13.25 10.875 13.25C8.37891 13.25 6.375 11.2461 6.375 8.75ZM10.875 11.5625C12.4219 11.5625 13.6875 10.332 13.6875 8.75C13.6875 7.20312 12.4219 5.9375 10.875 5.9375C10.8398 5.9375 10.8047 5.9375 10.7695 5.9375C10.8398 6.14844 10.875 6.32422 10.875 6.5C10.875 7.76562 9.85547 8.75 8.625 8.75C8.41406 8.75 8.23828 8.75 8.0625 8.67969C8.0625 8.71484 8.0625 8.75 8.0625 8.75C8.0625 10.332 9.29297 11.5625 10.875 11.5625ZM4.08984 3.72266C5.74219 2.17578 8.02734 0.875 10.875 0.875C13.6875 0.875 15.9727 2.17578 17.625 3.72266C19.2773 5.23438 20.3672 7.0625 20.8945 8.32812C21 8.60938 21 8.92578 20.8945 9.20703C20.3672 10.4375 19.2773 12.2656 17.625 13.8125C15.9727 15.3594 13.6875 16.625 10.875 16.625C8.02734 16.625 5.74219 15.3594 4.08984 13.8125C2.4375 12.2656 1.34766 10.4375 0.820312 9.20703C0.714844 8.92578 0.714844 8.60938 0.820312 8.32812C1.34766 7.0625 2.4375 5.23438 4.08984 3.72266ZM10.875 2.5625C8.55469 2.5625 6.69141 3.61719 5.25 4.95312C3.87891 6.21875 2.96484 7.69531 2.47266 8.75C2.96484 9.80469 3.87891 11.3164 5.25 12.582C6.69141 13.918 8.55469 14.9375 10.875 14.9375C13.1602 14.9375 15.0234 13.918 16.4648 12.582C17.8359 11.3164 18.75 9.80469 19.2422 8.75C18.75 7.69531 17.8359 6.21875 16.4648 4.95312C15.0234 3.61719 13.1602 2.5625 10.875 2.5625Z" fill="#999999"/>
</svg>
