<svg width="19" height="18" viewBox="0 0 19 18" fill="none" xmlns="http://www.w3.org/2000/svg">
<path d="M0.5 14.875C0.5 14.2773 0.992188 13.75 1.625 13.75H3.52344C3.98047 12.7656 4.96484 12.0625 6.125 12.0625C7.25 12.0625 8.23438 12.7656 8.69141 13.75H17.375C17.9727 13.75 18.5 14.2773 18.5 14.875C18.5 15.5078 17.9727 16 17.375 16H8.69141C8.23438 17.0195 7.25 17.6875 6.125 17.6875C4.96484 17.6875 3.98047 17.0195 3.52344 16H1.625C0.992188 16 0.5 15.5078 0.5 14.875ZM7.25 14.875C7.25 14.2773 6.72266 13.75 6.125 13.75C5.49219 13.75 5 14.2773 5 14.875C5 15.5078 5.49219 16 6.125 16C6.72266 16 7.25 15.5078 7.25 14.875ZM12.875 6.4375C14 6.4375 14.9844 7.14062 15.4414 8.125H17.375C17.9727 8.125 18.5 8.65234 18.5 9.25C18.5 9.88281 17.9727 10.375 17.375 10.375H15.4414C14.9844 11.3945 14 12.0625 12.875 12.0625C11.7148 12.0625 10.7305 11.3945 10.2734 10.375H1.625C0.992188 10.375 0.5 9.88281 0.5 9.25C0.5 8.65234 0.992188 8.125 1.625 8.125H10.2734C10.7305 7.14062 11.7148 6.4375 12.875 6.4375ZM14 9.25C14 8.65234 13.4727 8.125 12.875 8.125C12.2422 8.125 11.75 8.65234 11.75 9.25C11.75 9.88281 12.2422 10.375 12.875 10.375C13.4727 10.375 14 9.88281 14 9.25ZM17.375 2.5C17.9727 2.5 18.5 3.02734 18.5 3.625C18.5 4.25781 17.9727 4.75 17.375 4.75H9.81641C9.35938 5.76953 8.375 6.4375 7.25 6.4375C6.08984 6.4375 5.10547 5.76953 4.64844 4.75H1.625C0.992188 4.75 0.5 4.25781 0.5 3.625C0.5 3.02734 0.992188 2.5 1.625 2.5H4.64844C5.10547 1.51562 6.08984 0.8125 7.25 0.8125C8.375 0.8125 9.35938 1.51562 9.81641 2.5H17.375ZM6.125 3.625C6.125 4.25781 6.61719 4.75 7.25 4.75C7.84766 4.75 8.375 4.25781 8.375 3.625C8.375 3.02734 7.84766 2.5 7.25 2.5C6.61719 2.5 6.125 3.02734 6.125 3.625Z" fill="white"/>
</svg>
