<svg width="20" height="20" viewBox="0 0 20 20" fill="none" xmlns="http://www.w3.org/2000/svg">
<path d="M19.0781 16.8594C19.6055 17.4219 19.6055 18.3008 19.0781 18.8633C18.5156 19.3906 17.6367 19.3906 17.0742 18.8633L12.8906 14.6445C11.4492 15.5938 9.69141 16.0859 7.79297 15.8398C4.55859 15.3828 1.95703 12.7461 1.53516 9.54688C0.9375 4.76562 4.98047 0.722656 9.76172 1.32031C12.9609 1.74219 15.5977 4.34375 16.0547 7.57812C16.3008 9.47656 15.8086 11.2344 14.8594 12.6406L19.0781 16.8594ZM4.27734 8.5625C4.27734 11.0586 6.28125 13.0625 8.77734 13.0625C11.2383 13.0625 13.2773 11.0586 13.2773 8.5625C13.2773 6.10156 11.2383 4.0625 8.77734 4.0625C6.28125 4.0625 4.27734 6.10156 4.27734 8.5625Z" fill="#E2E2E2"/>
</svg>
