<svg width="18" height="20" viewBox="0 0 18 20" fill="none" xmlns="http://www.w3.org/2000/svg">
<g opacity="0.5" clip-path="url(#clip0_140_2656)">
<path d="M3.75 7.5V5C3.75 2.23867 5.98828 0 8.75 0C11.5117 0 13.75 2.23867 13.75 5V7.5H15C16.3789 7.5 17.5 8.62109 17.5 10V17.5C17.5 18.8789 16.3789 20 15 20H2.5C1.11914 20 0 18.8789 0 17.5V10C0 8.62109 1.11914 7.5 2.5 7.5H3.75ZM5.625 7.5H11.875V5C11.875 3.27422 10.4766 1.875 8.75 1.875C7.02344 1.875 5.625 3.27422 5.625 5V7.5ZM1.875 17.5C1.875 17.8438 2.15469 18.125 2.5 18.125H15C15.3438 18.125 15.625 17.8438 15.625 17.5V10C15.625 9.65625 15.3438 9.375 15 9.375H2.5C2.15469 9.375 1.875 9.65625 1.875 10V17.5Z" fill="#3C1D53"/>
</g>
<defs>
<clipPath id="clip0_140_2656">
<rect width="17.5" height="20" fill="white"/>
</clipPath>
</defs>
</svg>
