<svg width="201" height="147" viewBox="0 0 201 147" fill="none" xmlns="http://www.w3.org/2000/svg">
<g clip-path="url(#clip0_9_154)">
<path d="M119.974 86.548C119.935 87.7308 119.827 88.9055 119.496 90.0572C119.289 90.7755 119.025 91.4672 118.702 92.1312C118.414 92.7249 117.95 93.1941 117.368 93.5146C116.575 93.9504 115.741 94.2524 114.812 94.2305C114.257 94.2179 113.712 94.1983 113.168 94.0507C112.75 93.9389 112.303 93.9712 111.881 93.8086C111.476 93.6518 111.037 93.585 110.624 93.4455C109.94 93.2137 109.251 92.9878 108.59 92.6996C107.65 92.288 106.721 91.8419 105.807 91.3726C104.671 90.7905 103.533 90.2071 102.434 89.5581C101.139 88.7914 99.8992 87.9302 98.608 87.1555C97.2973 86.3693 96.0659 85.4689 94.8195 84.5939C93.4308 83.6174 92.0385 82.6444 90.729 81.555C89.4516 80.4909 88.1731 79.4314 86.9773 78.2762C86.6085 77.92 86.2697 77.5327 85.9124 77.1649C85.5827 76.8248 85.2404 76.4962 84.9142 76.1515C84.3617 75.5694 83.8034 74.9895 83.2738 74.3865C82.8201 73.8712 82.3951 73.3294 81.97 72.7898C81.213 71.8307 80.4618 70.8669 79.7174 69.8973C79.4969 69.6103 79.3016 69.3025 79.0994 69.0004C78.5067 68.1104 77.9024 67.2285 77.3269 66.327C76.9077 65.6687 76.5297 64.9839 76.1311 64.3129C76.0875 64.2391 76.0278 64.1746 75.9749 64.1054C75.9439 64.1181 75.9129 64.1296 75.8819 64.1423C75.9336 64.3948 75.9611 64.6565 76.0415 64.9009C76.1897 65.3516 76.3528 65.7978 76.5366 66.2347C76.9582 67.2389 77.3763 68.2441 77.8335 69.231C78.1609 69.9365 78.5434 70.6179 78.9156 71.3015C79.2361 71.8906 79.5727 72.4693 79.9104 73.0481C80.6536 74.3197 81.4462 75.5578 82.3526 76.7222C82.9855 77.5361 83.5794 78.38 84.1997 79.2031C84.4179 79.4925 84.6569 79.768 84.8958 80.0413C86.4615 81.827 88.08 83.5644 89.81 85.1899C90.1753 85.5323 90.5532 85.8609 90.9369 86.1825C90.9369 86.1825 90.9472 86.1906 90.9656 86.2056C91.4642 86.6252 91.9719 87.0345 92.4693 87.4541C93.0092 87.9095 93.5525 88.3602 94.0959 88.8121C94.4026 89.0681 94.707 89.3286 95.016 89.5823C95.0183 89.5846 95.0206 89.5857 95.0217 89.588C96.136 90.5529 97.2962 91.594 98.2439 92.5266C98.7171 93.0155 99.187 93.5077 99.6407 94.015C101.214 95.9229 101.427 97.9727 97.1526 97.9785C96.7643 97.9589 96.3772 97.937 95.9901 97.9105C95.5157 97.877 95.0424 97.8217 94.5703 97.7606C93.8891 97.6707 93.2079 97.5784 92.529 97.4689C92.4762 97.462 92.4233 97.4528 92.3705 97.4447C91.8834 97.3652 91.3998 97.2649 90.9185 97.1507C90.822 97.1277 90.7255 97.1046 90.629 97.0816C90.6233 97.0804 90.6187 97.0793 90.613 97.0781C89.9019 96.9098 89.1909 96.738 88.4878 96.5409C87.5758 96.2861 86.6729 96.0025 85.7688 95.72C85.4392 95.6174 85.1106 95.5091 84.7855 95.3938C84.6971 95.3627 84.6086 95.3304 84.5202 95.2981C84.4398 95.2681 84.3605 95.2393 84.2824 95.2093C83.7448 95.0053 83.2095 94.7943 82.6777 94.5776C82.6754 94.5776 82.6719 94.5776 82.6696 94.5741C82.4916 94.5015 82.3135 94.4277 82.1366 94.3539C82.0401 94.3136 81.9448 94.2698 81.8506 94.2248C81.846 94.2248 81.8425 94.2213 81.8391 94.219C81.56 94.0841 81.2866 93.9354 81.0005 93.8155C80.9052 93.7763 80.8087 93.7394 80.7111 93.706C80.2987 93.5123 79.8966 93.3163 79.5049 93.1169C79.4188 93.0696 79.297 93.0097 79.2533 92.9878C78.7617 92.7353 78.2861 92.4794 77.8278 92.2211C77.8278 92.2211 77.8243 92.2211 77.8232 92.2188C77.6061 92.092 77.3786 91.9594 77.1294 91.8142C77.1282 91.8165 77.1271 91.8188 77.1271 91.8211C76.6837 91.5617 76.2563 91.3012 75.8451 91.0429C75.8451 91.0395 75.8451 91.0348 75.844 91.0314C75.3155 90.6844 74.7894 90.342 74.2645 89.9961C74.2461 89.9846 74.2289 89.9731 74.2105 89.9627C73.3685 89.3805 72.6115 88.8145 71.9383 88.2841C71.2824 87.7458 70.6391 87.2247 70.0177 86.684C69.966 86.639 69.9166 86.5952 69.8672 86.5514C69.7994 86.4926 69.7328 86.4338 69.6662 86.3739C68.73 85.5346 67.7892 84.7022 66.9529 83.7488C66.1224 82.8 65.2253 81.9112 64.466 80.899C63.709 79.8902 62.9094 78.9126 62.1926 77.8762C61.477 76.8409 60.7866 75.7872 60.187 74.6701C59.6 73.5761 58.9774 72.5005 58.4651 71.3684C57.947 70.2247 57.4335 69.0753 56.989 67.9017C56.5467 66.7339 56.201 65.5303 55.8414 64.3314C55.4784 63.1266 55.2521 61.8977 54.9684 60.678C54.6835 59.4479 54.4997 58.2005 54.3837 56.9485C54.2665 55.6954 54.0563 54.4491 54.0655 53.1833C54.0758 51.9175 53.9644 50.639 54.1023 49.387C54.2401 48.1361 54.2539 46.8772 54.4676 45.6275C54.6789 44.3893 54.8478 43.1431 55.0902 41.9073C55.3337 40.6714 55.6358 39.4517 56.0137 38.2539C56.3916 37.0549 56.8477 35.8802 57.2589 34.6904C57.6656 33.5191 58.1848 32.3939 58.7212 31.2814C59.2657 30.1505 59.8814 29.0507 60.5236 27.9704C61.1657 26.8879 61.8641 25.8365 62.5648 24.7897C63.2667 23.7418 64.0283 22.7388 64.8818 21.805C65.7318 20.8746 66.5371 19.9039 67.3883 18.9747C68.2383 18.0455 69.1975 17.2282 70.2049 16.3451C70.2313 16.5607 70.2624 16.7025 70.2647 16.8454C70.2715 17.3827 70.2658 17.921 70.2681 18.4583C70.2738 19.5685 70.221 20.6798 70.3749 21.7854C70.5185 22.8057 70.6035 23.834 70.8425 24.8381C71.032 25.6371 71.1802 26.451 71.4329 27.2303C71.797 28.3532 72.1888 29.4749 72.6632 30.5551C73.1916 31.7622 73.7912 32.9404 74.4241 34.0967C74.9284 35.0167 75.5154 35.8928 76.0898 36.7725C76.8537 37.9403 77.729 39.0251 78.5951 40.1192C79.9253 41.8012 81.375 43.3737 82.9039 44.8724C83.6116 45.5653 84.3904 46.1866 85.0968 46.8807C85.8642 47.6335 86.7085 48.2883 87.5424 48.9581C88.6739 49.8665 89.8261 50.7462 91.0897 51.4702C91.5365 51.7261 91.9524 52.0339 92.3866 52.314C93.394 52.9666 94.4129 53.6029 95.4111 54.2704C96.252 54.8319 97.071 55.4267 97.8969 56.0101C98.3806 56.3502 98.8642 56.6903 99.3386 57.0419C100.028 57.5538 100.718 58.0656 101.392 58.5971C102.487 59.4583 103.58 60.3229 104.65 61.2129C105.356 61.7997 106.022 62.4326 106.702 63.0471C107.267 63.559 107.833 64.0708 108.389 64.5931C108.75 64.9331 109.099 65.2871 109.442 65.6456C109.692 65.9085 109.915 66.1978 110.168 66.4572C111.276 67.5928 112.311 68.7906 113.295 70.0391C114.316 71.3315 115.251 72.6792 116.119 74.0741C117.029 75.5336 117.829 77.0577 118.43 78.6751C118.768 79.587 119.109 80.5047 119.339 81.4466C119.595 82.5003 119.891 83.554 119.886 84.6596C119.882 85.289 119.994 85.9208 119.974 86.548Z" fill="#2A378F"/>
<path d="M146.881 49.7086C146.863 48.6549 146.766 47.6093 146.665 46.5602C146.553 45.397 146.378 44.2464 146.173 43.0982C145.914 41.6456 145.617 40.2011 145.179 38.7934C144.605 36.9489 144.004 35.1147 143.236 33.3335C142.407 31.4117 141.461 29.5545 140.413 27.7468C139.451 26.089 138.368 24.5085 137.179 23.0086C136.278 21.8696 135.34 20.7548 134.356 19.6884C133.108 18.3396 131.786 17.0587 130.361 15.8967C129.398 15.1127 128.439 14.3184 127.424 13.6048C125.158 12.0046 122.788 10.5763 120.269 9.39919C118.674 8.6533 117.042 8.00655 115.391 7.40937C113.81 6.83756 112.182 6.42369 110.544 6.06054C109.595 5.84957 108.628 5.72736 107.678 5.52446C107.039 5.38842 106.388 5.37459 105.752 5.27083C104.523 5.07024 103.284 5.01375 102.048 4.97916C100.484 4.9342 98.9157 4.89616 97.3523 5.07024C96.7079 5.14171 96.0565 5.14402 95.411 5.20858C94.8435 5.26507 94.2772 5.35499 93.7143 5.44722C93.1308 5.54175 92.5495 5.64436 91.9717 5.76541C90.7403 6.02249 89.502 6.25076 88.2867 6.5724C87.1632 6.87099 86.057 7.24797 84.9611 7.6411C83.9376 8.0077 82.9359 8.43772 81.9274 8.84583C81.4564 9.03605 80.9912 9.24125 80.4984 9.45107C80.4386 9.31273 80.3801 9.21474 80.3525 9.10868C79.5691 6.12394 79.3531 3.07926 79.3554 0C79.2693 0.613317 79.1509 1.22433 79.1061 1.8411C79.0407 2.71842 79.0246 3.60035 79.0016 4.48113C78.9947 4.72784 79.0464 4.9757 79.0579 5.22357C79.1176 6.44213 79.1728 7.66185 79.2302 8.88041C79.2325 8.91845 79.2382 8.9565 79.244 8.99454C79.391 9.88108 79.5369 10.7665 79.6862 11.653C79.901 12.9396 80.2514 14.1962 80.6695 15.424C81.0762 16.6183 81.5747 17.785 82.1043 18.9298C83.1255 21.1387 84.2776 23.2807 85.6527 25.2912C86.4522 26.4591 87.2988 27.5935 88.1327 28.7383C89.023 29.9614 90.0212 31.0982 91.0596 32.1934C91.9545 33.1375 92.9022 34.0333 93.8591 34.9141C94.7734 35.7545 95.7119 36.573 96.6746 37.3581C98.0071 38.4453 99.3832 39.4782 100.721 40.5584C102.481 41.9776 104.378 43.2008 106.235 44.4804C107.336 45.239 108.491 45.918 109.594 46.6755C110.759 47.4756 111.887 48.331 113.037 49.1541C114.516 50.2113 115.893 51.3999 117.226 52.6299C118.11 53.4439 119.007 54.2474 119.814 55.1512C120.745 56.1923 121.697 57.2114 122.58 58.2951C123.658 59.6151 124.647 61.0008 125.562 62.4315C126.541 63.9602 127.45 65.535 128.214 67.1905C128.833 68.5301 129.4 69.887 129.861 71.2877C130.254 72.4855 130.587 73.7018 130.859 74.933C130.958 75.3815 131.058 75.8311 131.119 76.2853C131.254 77.2883 131.381 78.2924 131.482 79.3C131.569 80.1739 131.647 81.0512 131.676 81.9285C131.732 83.614 131.654 85.2971 131.462 86.9722C131.36 87.8645 131.245 88.7557 131.085 89.6388C130.906 90.6348 130.671 91.6194 130.464 92.6097C130.454 92.6592 130.479 92.7157 130.492 92.7941C130.554 92.7445 130.619 92.7192 130.633 92.6765C130.912 91.8419 131.24 91.0187 131.444 90.1645C131.776 88.7707 132.025 87.3573 132.308 85.9508C132.365 85.6637 132.47 85.4147 132.694 85.2038C133.152 84.7726 133.602 84.3287 134.023 83.8618C134.662 83.1505 135.258 82.4012 135.901 81.6945C136.975 80.5163 137.895 79.2205 138.797 77.9131C140.408 75.5728 141.812 73.1115 142.944 70.5026C143.447 69.344 143.904 68.1635 144.338 66.9772C145.116 64.8513 145.671 62.6597 146.121 60.4428C146.281 59.6566 146.415 58.8634 146.514 58.0668C146.63 57.1364 146.709 56.2015 146.773 55.2665C146.856 54.0652 146.931 52.8605 146.965 51.6569C146.984 51.009 146.893 50.3588 146.881 49.7086ZM144.695 55.0994C144.62 56.0136 144.543 56.9266 144.44 57.8385C144.379 58.3884 144.29 58.9383 144.178 59.4802C143.982 60.4347 143.781 61.3882 143.544 62.3323C143.091 64.1354 142.542 65.9062 141.868 67.6412C141.245 69.2529 140.539 70.8242 139.725 72.3448C138.713 74.2367 137.619 76.0812 136.315 77.7886C135.526 78.8216 134.725 79.8441 133.909 80.8563C133.603 81.2368 133.252 81.5838 132.786 81.9815C132.765 81.6991 132.743 81.5377 132.742 81.3763C132.736 80.5128 132.773 79.647 132.721 78.7858C132.664 77.8347 132.626 76.879 132.434 75.936C132.275 75.1509 132.189 74.3497 132.072 73.5553C131.868 72.1696 131.509 70.8173 131.115 69.4777C130.424 67.1213 129.523 64.8432 128.374 62.669C127.605 61.2106 126.751 59.8007 125.75 58.4922C124.726 57.156 123.704 55.8141 122.593 54.5541C121.534 53.3505 120.466 52.1446 119.228 51.107C118.672 50.6401 118.167 50.1144 117.62 49.6337C116.083 48.2837 114.527 46.9545 112.837 45.797C110.818 44.4147 108.751 43.1016 106.741 41.7067C104.699 40.291 102.693 38.8257 100.69 37.3547C99.5199 36.4958 98.3643 35.6139 97.2432 34.6927C95.5132 33.2701 93.8303 31.7922 92.337 30.1148C91.2951 28.9435 90.2406 27.7837 89.2435 26.5744C88.4659 25.6313 87.7571 24.6295 87.0403 23.6369C86.1443 22.3941 85.3207 21.1029 84.5809 19.7599C83.8136 18.3684 83.0703 16.963 82.4971 15.4759C82.0698 14.3703 81.6368 13.2659 81.2117 12.1591C81.1451 11.985 81.1038 11.8006 81.0302 11.5493C82.0526 11.102 82.9922 10.6789 83.9422 10.2811C85.9743 9.43032 88.0673 8.76974 90.2108 8.26709C91.8293 7.88665 93.4559 7.55809 95.1112 7.39554C96.0784 7.29985 97.0525 7.2572 98.0174 7.14076C99.3143 6.98397 100.615 7.04738 101.913 7.06121C102.729 7.06928 103.547 7.17304 104.363 7.24913C105.18 7.32406 105.995 7.40822 106.81 7.50967C107.358 7.57884 107.904 7.66646 108.445 7.77713C109.474 7.98464 110.509 8.17487 111.521 8.44579C112.698 8.76167 113.865 9.12712 115.017 9.52601C116.009 9.86956 116.985 10.2615 117.945 10.6835C119.029 11.1584 120.106 11.6519 121.149 12.2064C122.567 12.9603 123.956 13.7685 125.275 14.6896C126.623 15.6315 127.949 16.5976 129.193 17.6813C130.451 18.7776 131.669 19.9109 132.803 21.1318C133.777 22.182 134.753 23.2346 135.57 24.422C135.959 24.988 136.43 25.4988 136.816 26.0683C137.439 26.9859 138.052 27.9117 138.611 28.8685C139.227 29.9245 139.8 31.0082 140.354 32.0977C141.26 33.8754 141.986 35.7268 142.616 37.6187C143.162 39.2557 143.609 40.9204 143.949 42.6094C144.172 43.7115 144.335 44.8275 144.492 45.9446C144.621 46.8565 144.613 47.7764 144.768 48.6814C144.773 48.7183 144.775 48.7575 144.776 48.7956C144.817 49.9818 144.895 51.1681 144.886 52.3544C144.879 53.2698 144.771 54.1851 144.695 55.0994Z" fill="#6293CD"/>
<path d="M90.2375 43.406C90.1709 42.2658 91.176 41.1718 92.5074 41.1937C93.8491 41.2156 94.7657 42.2958 94.7152 43.4187C94.6463 44.9162 93.7422 45.6771 92.4258 45.6979C91.1082 45.7186 90.164 44.6338 90.2387 43.406H90.2375Z" fill="#6293CD"/>
<path d="M95.9904 48.0289C95.8985 47.1032 96.8737 45.7463 98.2143 45.7682C99.4974 45.789 100.499 46.7009 100.475 48.09C100.452 49.3859 99.502 50.2793 98.2935 50.3127C96.9909 50.3485 95.9364 49.2256 95.9904 48.0289Z" fill="#6293CD"/>
<path d="M114.995 62.428C114.063 62.3485 113.304 61.8078 113.259 60.5915C113.223 59.637 114.061 58.8853 115.134 58.9153C115.976 58.9384 116.712 59.5344 116.743 60.6596C116.769 61.6084 115.938 62.4223 114.995 62.428Z" fill="#6293CD"/>
<path d="M110.896 58.7747C110.052 58.845 109.138 57.9781 109.207 57.1088C109.285 56.1266 109.802 55.4049 110.983 55.4003C111.914 55.3957 112.666 56.1692 112.624 57.1054C112.574 58.1879 111.795 58.8415 110.896 58.7758V58.7747Z" fill="#6293CD"/>
<path d="M103.392 49.3006C104.258 49.1761 105.018 50.0211 105.023 50.8523C105.03 51.8864 104.25 52.615 103.304 52.5793C102.428 52.547 101.666 51.8069 101.708 50.918C101.755 49.9393 102.394 49.2914 103.392 49.3006Z" fill="#6293CD"/>
<path d="M89.9063 39.3434C90.0373 40.2345 89.1309 41.0519 88.2775 41.0334C87.3803 41.0138 86.6693 40.2841 86.6612 39.3699C86.6532 38.579 87.239 37.7351 88.2889 37.7236C89.2734 37.7132 90.0327 38.5456 89.9063 39.3434Z" fill="#6293CD"/>
<path d="M86.5772 35.8859C86.576 36.8024 85.8363 37.5668 84.9587 37.561C84.0776 37.5541 83.3447 36.7863 83.3516 35.8779C83.3585 34.9579 84.0558 34.2662 84.9977 34.2443C85.8409 34.2247 86.5783 34.9913 86.5772 35.8859Z" fill="#6293CD"/>
<path d="M108.639 54.0191C108.641 54.9979 108.002 55.61 107.023 55.6481C106.212 55.6792 105.372 54.81 105.396 54.0375C105.424 53.1475 106.139 52.4339 107.038 52.3924C107.884 52.3532 108.709 53.0599 108.639 54.0191Z" fill="#6293CD"/>
<path d="M82.1583 30.9944C82.8268 31.0221 83.608 31.5639 83.5769 32.5C83.5459 33.4315 82.9968 33.9376 82.195 33.9607C81.2117 33.9883 80.5891 33.2782 80.6213 32.4412C80.6546 31.5916 81.2209 31.0463 82.1583 30.9955V30.9944Z" fill="#6293CD"/>
<path d="M120.098 64.2138C120.102 65.0473 119.447 65.6883 118.607 65.6837C117.922 65.6802 117.13 65.098 117.126 64.1757C117.122 63.4448 117.86 62.7012 118.608 62.7139C119.445 62.7277 120.137 63.4656 120.098 64.2149V64.2138Z" fill="#6293CD"/>
<path d="M121.357 69.5584C120.216 69.3244 119.822 68.9082 119.871 68.009C119.903 67.4152 120.409 66.8676 120.979 66.8089C121.805 66.7235 122.383 67.1063 122.575 67.8649C122.756 68.5808 122.356 69.1457 121.357 69.5584Z" fill="#6293CD"/>
<path d="M122.071 72.6319C122.341 71.3788 123.058 71.328 123.772 71.4306C124.338 71.5113 124.739 72.0774 124.709 72.7541C124.677 73.4977 124.312 73.8689 123.589 73.9658C122.719 74.0834 122.333 73.726 122.071 72.6319Z" fill="#6293CD"/>
<path d="M125.738 77.3344C125.799 78.0399 125.205 78.6544 124.399 78.6613C123.789 78.6659 123.201 78.0122 123.198 77.3574C123.196 76.7038 123.882 76.0259 124.538 76.0432C125.157 76.0605 125.818 76.7164 125.738 77.3344Z" fill="#6293CD"/>
<path d="M79.2973 26.6471C80.0083 26.7635 80.5011 27.1348 80.5666 27.951C80.4747 28.7015 80.0451 29.1407 79.2869 29.2422C78.4805 29.1903 78.1152 28.6876 77.9751 27.959C78.09 27.2062 78.4943 26.7416 79.2973 26.6471Z" fill="#6293CD"/>
<path d="M123.683 81.8271C123.912 81.042 124.39 80.65 124.997 80.7515C125.582 80.8483 126.075 81.3556 126.069 81.8548C126.062 82.4612 125.56 83.0099 124.971 83.056C124.277 83.1102 123.88 82.7309 123.683 81.8271Z" fill="#6293CD"/>
<path d="M77.6302 24.8623C76.7939 24.671 76.3965 24.2317 76.4688 23.6092C76.5274 23.1123 77.0099 22.635 77.49 22.5993C77.9978 22.5613 78.5848 23.0385 78.6766 23.5642C78.7766 24.1326 78.3941 24.6145 77.6302 24.8623Z" fill="#6293CD"/>
<path d="M75.1182 19.3886C75.2916 18.4525 75.5765 18.1758 76.314 18.2046C76.7735 18.2231 77.1904 18.6047 77.2433 19.0589C77.3088 19.6192 76.994 20.1299 76.4759 20.2579C75.9659 20.3847 75.3858 20.2509 75.1182 19.3886Z" fill="#6293CD"/>
<path d="M74.8802 14.5063C75.4029 13.8446 75.852 13.6855 76.3517 13.9553C76.8181 14.2066 77.0122 14.828 76.8284 15.2349C76.6423 15.6453 76.1415 15.9612 75.7268 15.8759C75.0927 15.7445 74.8366 15.3387 74.8802 14.5075V14.5063Z" fill="#6293CD"/>
<path d="M123.778 85.5047C123.955 85.3813 124.083 85.266 124.233 85.1934C124.554 85.0389 124.877 85.085 125.139 85.3144C125.425 85.5646 125.466 85.9197 125.364 86.2632C125.263 86.601 124.986 86.7855 124.646 86.8397C124.259 86.9008 123.833 86.5757 123.784 86.1814C123.758 85.9773 123.779 85.7664 123.779 85.5047H123.778Z" fill="#6293CD"/>
<path d="M75.8074 11.7614C75.4352 11.6254 75.0791 11.4663 75.0963 10.9913C75.1124 10.5544 75.4524 10.4045 75.7775 10.2777C76.3576 10.4622 76.4621 10.5775 76.4817 10.9833C76.5035 11.4259 76.26 11.6438 75.8074 11.7614Z" fill="#6293CD"/>
<path d="M81.8506 94.2249C82.1194 94.3424 82.3928 94.46 82.6696 94.5742C82.4916 94.5015 82.3135 94.4278 82.1366 94.354C82.0401 94.3136 81.9448 94.2698 81.8506 94.2249Z" fill="#6293CD"/>
<path d="M90.6294 97.0815C91.3025 97.2314 91.9355 97.3594 92.5294 97.4689C92.4765 97.462 92.4237 97.4528 92.3708 97.4447C91.8838 97.3651 91.4002 97.2649 90.9189 97.1507C90.8224 97.1277 90.7259 97.1046 90.6294 97.0815Z" fill="#6293CD"/>
</g>
<g clip-path="url(#clip1_9_154)">
<path d="M16.8036 134.563C16.7855 134.363 16.7682 134.175 16.7514 133.987C16.7327 133.987 16.7147 133.987 16.6959 133.987C16.6665 134.146 16.6364 134.304 16.5997 134.499C16.5335 134.606 16.3924 134.581 16.2614 134.584C15.4504 134.6 14.6394 134.584 13.8291 134.576C13.339 134.572 12.8489 134.578 12.3589 134.562C12.0399 134.552 11.7217 134.511 11.3707 134.483C11.346 134.267 11.3105 134.061 11.3005 133.854C11.2671 133.164 11.2443 132.474 11.2149 131.784C11.1975 131.372 11.1808 130.961 11.1527 130.549C11.1206 130.073 11.0685 129.597 11.0411 129.12C11.021 128.775 11.0371 128.427 11.0183 128.083C10.9876 127.505 10.9415 126.929 10.902 126.352C10.8993 126.318 10.8987 126.285 10.8973 126.251C10.8706 125.606 10.8425 124.96 10.8158 124.315C10.7944 123.792 10.781 123.268 10.7522 122.746C10.7282 122.324 10.6807 121.903 10.656 121.482C10.6473 121.328 10.6747 121.173 10.6854 121.018C10.9054 120.474 11.2811 120.08 11.8126 119.844C12.2365 119.656 12.6811 119.664 13.1184 119.785C13.3002 119.835 13.5202 119.838 13.6379 120.032C13.4781 120.247 13.3209 120.444 13.1805 120.653C13.0575 120.837 12.9432 121.027 12.8449 121.224C12.7373 121.44 12.5761 121.603 12.4043 121.764C12.2853 121.876 12.1456 121.978 12.0994 122.188C12.2225 122.324 12.3542 122.471 12.4866 122.618C12.5975 123.016 12.3288 123.35 12.292 123.752C12.7573 124.045 12.9278 124.544 13.111 124.947C13.2775 125.088 13.4072 125.17 13.5001 125.283C13.7729 125.612 14.0143 125.962 13.9741 126.422C13.9621 126.564 13.9374 126.709 13.8953 126.844C13.8471 126.998 13.8311 127.139 13.8759 127.3C13.9354 127.513 13.9568 127.737 14.0009 127.995C14.3633 128.225 14.632 128.568 14.7624 129.055C14.7524 129.091 14.7276 129.164 14.7123 129.239C14.6775 129.405 14.7056 129.562 14.854 129.655C15.0827 129.798 15.205 130.023 15.3441 130.235C15.4851 130.451 15.6409 130.646 15.8522 130.801C16.0601 130.953 16.2647 131.011 16.5021 130.883C16.5301 130.867 16.5649 130.865 16.6184 130.851C16.6445 131.03 16.6759 131.201 16.6946 131.374C16.7688 132.059 16.841 132.744 16.9086 133.43C16.9386 133.728 16.9574 134.028 16.9768 134.328C16.9834 134.43 16.9674 134.527 16.8036 134.562V134.563Z" fill="#6293CD"/>
<path d="M159.893 144.37C159.857 144.06 159.865 143.742 159.896 143.393C160.024 143.379 160.131 143.359 160.238 143.357C160.482 143.352 160.728 143.355 160.972 143.355C174.127 143.355 187.281 143.355 200.435 143.357C200.609 143.357 200.794 143.316 200.97 143.457C201.026 143.748 200.982 144.057 200.995 144.394C200.893 144.427 200.802 144.481 200.711 144.481C200.391 144.481 200.071 144.457 199.751 144.453C199.455 144.449 199.16 144.46 198.864 144.461C198.346 144.463 197.828 144.459 197.311 144.463C196.947 144.466 196.583 144.488 196.219 144.485C195.788 144.482 195.356 144.454 194.925 144.453C194.585 144.451 194.244 144.482 193.903 144.484C193.45 144.487 192.996 144.474 192.542 144.473C192.19 144.473 191.838 144.488 191.485 144.485C191.043 144.482 190.599 144.464 190.157 144.461C189.827 144.459 189.498 144.471 189.169 144.477C189.035 144.48 188.902 144.485 188.769 144.486C188.318 144.487 187.868 144.49 187.417 144.487C186.975 144.484 186.533 144.467 186.091 144.466C185.738 144.466 185.386 144.489 185.033 144.486C184.59 144.483 184.148 144.456 183.706 144.454C183.375 144.452 183.044 144.478 182.712 144.482C182.27 144.488 181.827 144.484 181.384 144.485C181.01 144.485 180.636 144.491 180.261 144.486C179.809 144.48 179.357 144.462 178.905 144.456C178.773 144.454 178.64 144.486 178.508 144.484C178.099 144.478 177.69 144.454 177.281 144.453C176.939 144.453 176.597 144.483 176.254 144.485C175.801 144.488 175.347 144.473 174.894 144.473C174.541 144.473 174.189 144.488 173.837 144.486C173.394 144.483 172.951 144.463 172.508 144.461C172.169 144.46 171.829 144.475 171.49 144.482C171.368 144.484 171.245 144.486 171.123 144.486C170.672 144.487 170.222 144.49 169.771 144.487C169.329 144.484 168.887 144.467 168.445 144.466C168.092 144.466 167.74 144.489 167.387 144.486C166.944 144.483 166.502 144.455 166.06 144.454C165.719 144.453 165.378 144.482 165.037 144.485C164.606 144.489 164.175 144.478 163.744 144.478C163.468 144.478 163.193 144.487 162.917 144.487C162.29 144.488 161.663 144.508 161.038 144.474C160.781 144.46 160.533 144.507 160.279 144.49C160.104 144.478 160.104 144.486 159.893 144.372V144.37Z" fill="#6293CD"/>
<path d="M0.00408655 143.724V142.746C0.137803 142.644 0.2762 142.682 0.405236 142.681C2.09809 142.678 3.79094 142.679 5.48379 142.679C17.1994 142.679 28.9149 142.679 40.6312 142.679C40.7629 142.679 40.8946 142.688 41.047 142.692C41.1634 143.036 41.0778 143.368 41.1126 143.722C41.0022 143.756 40.9126 143.803 40.8197 143.808C40.6459 143.818 40.47 143.803 40.2955 143.801C39.9252 143.799 39.5554 143.803 39.185 143.799C38.8782 143.795 38.5719 143.776 38.2651 143.777C37.7723 143.777 37.2802 143.795 36.7875 143.793C36.3188 143.791 35.8501 143.766 35.3808 143.766C35.0432 143.766 34.7049 143.795 34.3672 143.799C34.0724 143.803 33.7775 143.792 33.4827 143.785C33.2855 143.781 33.0882 143.771 32.891 143.77C32.5206 143.766 32.1495 143.766 31.7791 143.765C31.6147 143.765 31.4502 143.768 31.2857 143.769C30.9361 143.771 30.5857 143.772 30.2361 143.774C29.8977 143.776 29.5601 143.78 29.2218 143.78C28.8608 143.779 28.4997 143.768 28.1387 143.772C27.6687 143.776 27.1987 143.799 26.728 143.801C26.4124 143.802 26.0962 143.775 25.7799 143.769C25.4844 143.763 25.1889 143.765 24.8934 143.767C24.5437 143.77 24.1934 143.776 23.8437 143.78C23.484 143.785 23.1243 143.793 22.7653 143.791C22.415 143.789 22.0646 143.769 21.715 143.772C21.1146 143.776 20.5142 143.797 19.9138 143.801C19.6083 143.803 19.3027 143.783 18.9978 143.775C18.812 143.77 18.6268 143.772 18.4409 143.772C18.0913 143.772 17.7409 143.772 17.3912 143.773C17.0643 143.773 16.7367 143.776 16.4098 143.776C16.038 143.776 15.6663 143.766 15.2946 143.772C14.8239 143.778 14.3539 143.803 13.8839 143.804C13.4466 143.804 13.0094 143.778 12.5721 143.774C12.2345 143.77 11.8962 143.785 11.5585 143.786C11.2182 143.787 10.8786 143.779 10.5383 143.781C10.0582 143.785 9.57886 143.799 9.09881 143.801C8.7926 143.801 8.48706 143.778 8.18085 143.778C7.81982 143.778 7.45945 143.799 7.09908 143.8C6.7922 143.8 6.48533 143.781 6.17845 143.778C5.84081 143.774 5.50251 143.78 5.16421 143.78C4.80451 143.779 4.44481 143.77 4.08511 143.774C3.61376 143.779 3.14174 143.801 2.67039 143.801C2.32206 143.801 1.9744 143.776 1.62607 143.766C1.48165 143.762 1.33657 143.768 1.19216 143.772C0.855192 143.781 0.517558 143.795 0.180592 143.8C0.130449 143.8 0.080305 143.759 0.00341797 143.725L0.00408655 143.724Z" fill="#6293CD"/>
<path d="M6.58897 119.815C6.8905 119.739 9.43646 119.742 9.7293 119.823C9.73732 119.941 9.75404 120.07 9.75404 120.2C9.75604 121.596 9.75538 122.992 9.75538 124.389C9.75538 127.661 9.75538 130.934 9.75538 134.207C9.75538 134.315 9.74669 134.424 9.742 134.525C9.46187 134.586 7.98096 134.592 7.62795 134.534C7.62393 134.412 7.61658 134.282 7.61658 134.152C7.61658 131.046 7.61658 127.942 7.61457 124.836C7.61457 124.675 7.65001 124.502 7.49958 124.336C7.42403 124.858 7.35784 125.352 7.28095 125.844C7.18066 126.491 7.06834 127.137 6.96872 127.784C6.88916 128.299 6.82632 128.817 6.74675 129.333C6.67722 129.782 6.59565 130.23 6.51877 130.679C6.51342 130.712 6.4947 130.743 6.49403 130.775C6.47932 131.49 6.28343 132.18 6.20721 132.887C6.1477 133.437 6.03471 133.981 5.9478 134.517C5.66766 134.593 4.08847 134.596 3.7729 134.519C3.75953 134.391 3.7515 134.25 3.7281 134.111C3.6238 133.487 3.51416 132.864 3.40718 132.24C3.29687 131.595 3.17385 130.952 3.08225 130.304C3.01406 129.82 2.93984 129.339 2.82151 128.865C2.80279 128.791 2.81549 128.709 2.80412 128.632C2.77938 128.457 2.74863 128.282 2.72055 128.107C2.7045 128.009 2.67509 127.911 2.67375 127.812C2.67107 127.642 2.66372 127.477 2.5748 127.326C2.5641 127.308 2.55274 127.283 2.55474 127.263C2.58884 126.868 2.44376 126.495 2.39361 126.111C2.34481 125.739 2.26792 125.372 2.23248 124.996C2.21644 124.826 2.13353 124.662 2.08205 124.501C2.0513 124.504 2.03993 124.503 2.03258 124.507C2.02389 124.513 2.01586 124.524 2.01386 124.534C2.00918 124.556 2.00583 124.579 2.00517 124.601C2.00383 124.656 2.00316 124.712 2.00316 124.768C2.00316 127.985 2.00316 131.202 2.00316 134.419C2.00316 134.441 1.99781 134.463 1.99313 134.484C1.99113 134.495 1.98578 134.505 1.98177 134.515C1.75244 134.592 0.363796 134.604 0.0402019 134.531C-0.0132847 134.256 -0.0146219 120.117 0.0435448 119.813C0.105723 119.797 0.17793 119.764 0.250137 119.764C1.17479 119.76 2.09944 119.761 3.02409 119.764C3.0876 119.764 3.15112 119.788 3.22867 119.803C3.26544 120.04 3.28684 120.272 3.33966 120.496C3.41855 120.831 3.3878 121.184 3.52352 121.511C3.55962 121.598 3.53689 121.709 3.54357 121.809C3.54959 121.898 3.54357 121.991 3.56831 122.074C3.70738 122.534 3.73813 123.013 3.81235 123.484C3.81903 123.528 3.82505 123.572 3.8324 123.616C3.95676 124.338 4.08713 125.058 4.2048 125.781C4.28503 126.273 4.31579 126.774 4.45753 127.256C4.48226 127.34 4.46756 127.434 4.47959 127.522C4.50165 127.686 4.52907 127.85 4.55648 128.013C4.61799 128.386 4.70758 128.755 4.73499 129.13C4.75705 129.435 4.86804 129.713 4.92152 130.006C4.9242 130.021 4.95562 130.031 4.97501 130.043C5.08733 130.006 5.07597 129.905 5.07262 129.821C5.06393 129.562 5.11073 129.312 5.17759 129.063C5.20367 128.968 5.19631 128.865 5.20968 128.765C5.23041 128.612 5.25581 128.459 5.27855 128.306C5.34474 127.867 5.41026 127.428 5.47845 126.99C5.50052 126.848 5.53261 126.709 5.55601 126.568C5.57607 126.448 5.60415 126.327 5.60548 126.207C5.60816 125.983 5.6476 125.768 5.69374 125.549C5.77798 125.147 5.81809 124.738 5.8776 124.331C5.90033 124.177 5.92373 124.024 5.95047 123.872C5.9605 123.818 5.99727 123.765 5.99594 123.712C5.98658 123.362 6.07951 123.029 6.13701 122.689C6.22058 122.197 6.28008 121.701 6.35296 121.207C6.41647 120.779 6.484 120.351 6.55086 119.924C6.55621 119.892 6.57092 119.861 6.58763 119.813L6.58897 119.815Z" fill="#2A378F"/>
<path d="M81.0631 134.56H78.0278C77.868 133.291 77.7403 132.025 77.6059 130.759C77.4722 129.503 77.3378 128.246 77.1566 126.98C77.1292 127.043 77.0844 127.104 77.077 127.169C77.0242 127.644 76.9814 128.12 76.9306 128.595C76.9132 128.761 76.8798 128.924 76.8611 129.089C76.8364 129.31 76.821 129.532 76.7982 129.752C76.7775 129.951 76.7528 130.149 76.7287 130.347C76.6659 130.854 76.5937 131.36 76.5408 131.867C76.484 132.419 76.4519 132.974 76.3958 133.526C76.3617 133.866 76.3028 134.203 76.2534 134.556H73.1444C73.1271 134.12 72.9506 133.723 72.984 133.294C72.9913 133.195 72.9907 133.088 72.9613 132.995C72.8549 132.66 72.8523 132.316 72.8489 131.969C72.8476 131.827 72.8142 131.684 72.7968 131.541C72.77 131.321 72.744 131.1 72.7186 130.88C72.6945 130.671 72.6704 130.461 72.6477 130.251C72.6256 130.041 72.6062 129.831 72.5842 129.621C72.5701 129.489 72.5514 129.358 72.5367 129.226C72.5066 128.95 72.4785 128.673 72.4491 128.397C72.4398 128.309 72.4411 128.217 72.4157 128.133C72.3281 127.841 72.3194 127.542 72.3127 127.241C72.308 127.031 72.2699 126.821 72.2439 126.613C72.2265 126.47 72.2004 126.328 72.185 126.185C72.1576 125.93 72.1362 125.676 72.1121 125.422C72.0921 125.212 72.0714 125.003 72.0493 124.793C72.0353 124.66 72.0152 124.529 72.0012 124.397C71.9717 124.121 71.9437 123.845 71.9163 123.568C71.9062 123.469 71.9236 123.359 71.8875 123.271C71.7692 122.981 71.7919 122.68 71.7799 122.38C71.7725 122.204 71.7411 122.028 71.7204 121.852C71.697 121.654 71.6736 121.455 71.6488 121.257C71.6174 121.004 71.5933 120.749 71.5492 120.498C71.5084 120.266 71.5037 120.037 71.5352 119.811C71.7886 119.749 73.3183 119.738 73.6933 119.795C73.7034 119.874 73.7154 119.959 73.7241 120.044C73.7468 120.276 73.7676 120.508 73.7896 120.741C73.8124 120.983 73.8337 121.227 73.8605 121.469C73.8772 121.623 73.9033 121.777 73.922 121.931C73.9889 122.482 74.055 123.033 74.1192 123.584C74.1293 123.673 74.1206 123.763 74.1279 123.852C74.1473 124.084 74.17 124.316 74.1921 124.548C74.2148 124.791 74.2369 125.035 74.2623 125.278C74.2817 125.465 74.3038 125.653 74.3278 125.84C74.388 126.313 74.4502 126.786 74.5104 127.259C74.5204 127.336 74.5257 127.414 74.5251 127.492C74.5224 127.816 74.5331 128.137 74.6367 128.451C74.6641 128.533 74.6541 128.627 74.6608 128.716C74.6835 128.993 74.7056 129.27 74.729 129.547C74.751 129.813 74.7711 130.078 74.7978 130.343C74.8186 130.542 74.846 130.74 74.8781 130.937C74.8834 130.968 74.9322 130.991 74.9884 131.042C75.082 130.809 75.1034 130.593 75.1214 130.379C75.1341 130.224 75.1188 130.066 75.1301 129.911C75.1442 129.723 75.1736 129.536 75.195 129.349C75.217 129.162 75.2572 128.974 75.2545 128.787C75.2485 128.394 75.312 128.011 75.3735 127.628C75.3855 127.551 75.3849 127.472 75.3929 127.395C75.433 126.998 75.4979 126.601 75.5079 126.202C75.5213 125.677 75.6149 125.162 75.6516 124.642C75.6797 124.242 75.7018 123.845 75.7787 123.45C75.798 123.353 75.7954 123.25 75.7934 123.15C75.786 122.836 75.8087 122.528 75.897 122.223C75.9304 122.108 75.9171 121.98 75.9278 121.859C75.9505 121.593 75.9745 121.328 75.9973 121.063C76.02 120.797 76.0434 120.532 76.0621 120.266C76.0722 120.123 76.0735 119.979 76.0789 119.838C76.1377 119.808 76.1765 119.772 76.2152 119.771C76.8818 119.768 77.5491 119.769 78.2257 119.769C78.3306 120.015 78.4028 120.256 78.4008 120.516C78.3968 120.918 78.4363 121.314 78.5185 121.709C78.57 121.958 78.5727 122.217 78.5927 122.472C78.6221 122.849 78.6442 123.226 78.675 123.602C78.6923 123.812 78.7231 124.022 78.7452 124.232C78.7672 124.441 78.7846 124.651 78.8067 124.86C78.8421 125.202 78.8795 125.545 78.915 125.887C78.925 125.986 78.9304 126.087 78.941 126.186C78.9778 126.517 79.022 126.846 79.0527 127.177C79.0714 127.377 79.0641 127.579 79.0781 127.779C79.0888 127.934 79.1149 128.086 79.1336 128.241C79.1583 128.45 79.1817 128.659 79.2065 128.869C79.2453 129.199 79.2927 129.529 79.3208 129.86C79.3415 130.104 79.3389 130.351 79.3429 130.595C79.3455 130.762 79.3502 130.926 79.49 131.095C79.5354 131.017 79.5929 130.96 79.6003 130.897C79.6324 130.599 79.6471 130.299 79.6745 130C79.6972 129.756 79.73 129.514 79.7561 129.271C79.7748 129.095 79.7888 128.918 79.8075 128.741C79.8296 128.532 79.8543 128.323 79.8784 128.113C79.8978 127.948 79.9352 127.783 79.9352 127.618C79.9346 127.237 79.9687 126.862 80.0522 126.491C80.0689 126.416 80.0656 126.336 80.0736 126.259C80.1131 125.884 80.1545 125.509 80.1926 125.134C80.202 125.045 80.1993 124.956 80.208 124.867C80.2247 124.702 80.2481 124.537 80.2655 124.372C80.2923 124.118 80.3157 123.863 80.3404 123.609C80.3631 123.377 80.3859 123.146 80.4079 122.914C80.4307 122.67 80.4514 122.427 80.4755 122.184C80.4955 121.985 80.5209 121.787 80.5403 121.589C80.565 121.334 80.5811 121.079 80.6105 120.825C80.6499 120.484 80.6994 120.145 80.7429 119.817C80.9983 119.747 82.1917 119.731 82.639 119.785C82.7206 119.937 82.6998 120.109 82.6684 120.266C82.5942 120.639 82.5407 121.011 82.544 121.392C82.5447 121.523 82.4952 121.654 82.4819 121.786C82.4123 122.459 82.3488 123.134 82.2793 123.807C82.2666 123.929 82.2372 124.048 82.2144 124.168C82.1235 124.648 82.1703 125.147 82.0272 125.62C82.0119 125.672 82.0165 125.732 82.0192 125.787C82.0366 126.146 81.9597 126.494 81.9042 126.845C81.8547 127.163 81.8481 127.487 81.8126 127.807C81.7598 128.282 81.6956 128.755 81.6415 129.228C81.586 129.713 81.5345 130.199 81.4837 130.684C81.4569 130.938 81.4382 131.193 81.4108 131.446C81.37 131.821 81.3286 132.196 81.2791 132.571C81.2122 133.076 81.2162 133.59 81.0986 134.091C81.0665 134.229 81.0765 134.377 81.0645 134.558L81.0631 134.56Z" fill="#2A378F"/>
<path d="M92.267 134.559H89.937C89.8574 134.298 89.7785 134.046 89.705 133.793C89.6588 133.634 89.6201 133.473 89.5799 133.313C89.4837 132.926 89.3894 132.539 89.2911 132.152C89.239 131.949 89.1775 131.748 89.124 131.545C89.0879 131.406 89.0611 131.266 89.025 131.127C88.9776 130.948 88.9241 130.769 88.8746 130.59C88.7429 130.108 88.6152 129.626 88.4815 129.145C88.3839 128.793 88.2729 128.445 88.1799 128.092C88.0536 127.609 87.9466 127.12 87.8169 126.638C87.7113 126.245 87.5775 125.859 87.4679 125.467C87.3549 125.061 87.2573 124.652 87.1523 124.244C87.139 124.193 87.1202 124.144 87.0841 124.035C87.0293 124.146 86.9832 124.205 86.9725 124.271C86.9558 124.369 86.9618 124.47 86.9618 124.571C86.9618 127.63 86.9618 130.69 86.9618 133.749C86.9618 133.993 86.9725 134.236 86.9792 134.507C86.941 134.523 86.8842 134.568 86.8267 134.569C86.2477 134.574 85.6687 134.571 85.0897 134.568C85.059 134.568 85.0282 134.549 85.0002 134.541C84.9433 134.292 84.9286 120.197 84.9868 119.79C85.065 119.781 85.1499 119.762 85.2342 119.762C85.9803 119.76 86.7264 119.76 87.4726 119.762C87.8095 119.763 87.8142 119.778 87.9038 120.131C87.9914 120.475 88.0964 120.814 88.19 121.157C88.3591 121.776 88.5229 122.397 88.6934 123.016C88.8171 123.464 88.9562 123.909 89.0738 124.359C89.1828 124.776 89.2657 125.201 89.3734 125.619C89.4676 125.984 89.5793 126.345 89.6849 126.707C89.7284 126.857 89.7845 127.002 89.8193 127.154C89.9022 127.51 89.9757 127.869 90.056 128.226C90.062 128.254 90.0927 128.277 90.1322 128.328C90.171 128.261 90.2184 128.213 90.2251 128.16C90.2392 128.05 90.2338 127.937 90.2338 127.826C90.2338 125.269 90.2338 122.712 90.2338 120.156C90.2338 120.045 90.2338 119.934 90.2338 119.831C90.4785 119.746 91.9327 119.734 92.2643 119.807C92.3144 120.063 92.3218 134.217 92.2663 134.562L92.267 134.559Z" fill="#2A378F"/>
<path d="M34.41 123.865C34.4521 123.199 34.3672 122.538 34.172 121.89C34.0349 121.434 33.831 121.029 33.5061 120.682C33.2099 120.367 32.8549 120.145 32.4484 120.009C32.2398 119.938 32.0245 119.887 31.8092 119.839C31.6481 119.803 31.4829 119.766 31.3191 119.765C30.0936 119.759 28.8688 119.761 27.6433 119.762C27.5356 119.762 27.4287 119.777 27.323 119.785C27.3003 119.856 27.2749 119.897 27.2749 119.938C27.2729 124.795 27.2735 129.653 27.2735 134.547C27.3745 134.559 27.4387 134.572 27.5029 134.572C28.7839 134.572 30.0649 134.589 31.3452 134.564C31.9249 134.552 32.4811 134.389 32.9873 134.083C33.4278 133.817 33.7668 133.443 33.9821 132.991C34.1646 132.607 34.2856 132.189 34.3003 131.745C34.3191 131.179 34.3906 130.616 34.4107 130.05C34.4227 129.729 34.3572 129.406 34.3619 129.085C34.3873 127.345 34.3003 125.604 34.41 123.865ZM31.9917 131.806C31.8306 132.231 31.4863 132.49 31.0323 132.493C30.6425 132.497 30.2534 132.495 29.8636 132.492C29.7774 132.492 29.6911 132.476 29.5935 132.466C29.5213 132.132 29.4872 123.631 29.5441 122.119C29.5467 122.044 29.5668 121.97 29.5822 121.876C29.6784 121.862 29.7633 121.84 29.8489 121.84C30.238 121.836 30.6278 121.836 31.0169 121.842C31.1152 121.844 31.2175 121.858 31.3091 121.89C31.7938 122.066 32.0786 122.473 32.0807 123.015C32.0867 124.253 32.084 125.492 32.0847 126.731C32.0847 128.181 32.0847 129.632 32.0853 131.083C32.0853 131.327 32.0813 131.569 31.9917 131.806Z" fill="#2A378F"/>
<path d="M130.797 134.257C130.664 133.961 130.679 133.649 130.671 133.336C130.665 133.092 130.597 132.844 130.626 132.606C130.685 132.127 130.61 131.653 130.62 131.178C130.623 131.035 130.664 130.892 130.667 130.748C130.678 130.078 130.62 129.413 130.401 128.777C130.216 128.242 129.96 127.753 129.393 127.516C129.32 127.485 129.266 127.408 129.168 127.323C129.322 127.215 129.422 127.147 129.52 127.076C129.783 126.884 129.992 126.649 130.164 126.369C130.485 125.849 130.573 125.268 130.6 124.681C130.628 124.057 130.629 123.429 130.6 122.805C130.58 122.398 130.551 121.987 130.408 121.592C130.135 120.832 129.634 120.316 128.885 120.014C128.598 119.899 128.298 119.903 128.011 119.822C127.884 119.786 127.749 119.766 127.618 119.765C126.404 119.76 125.189 119.761 123.975 119.762C123.902 119.762 123.827 119.781 123.759 119.79C123.701 120.139 123.71 134.283 123.773 134.57C124.005 134.572 124.248 134.574 124.49 134.574C124.746 134.575 125.003 134.582 125.258 134.572C125.498 134.562 125.744 134.622 125.995 134.52V133.679C125.996 133.388 125.996 133.098 125.996 132.807C125.996 132.528 125.996 132.249 125.996 131.969V131.132C125.996 130.853 125.996 130.573 125.996 130.294C125.996 130.004 125.989 129.713 125.997 129.424C126.005 129.148 125.957 128.869 126.036 128.593C126.087 128.574 126.127 128.546 126.168 128.545C126.513 128.543 126.863 128.509 127.202 128.555C127.555 128.603 127.88 128.747 128.078 129.089C128.226 129.346 128.332 129.608 128.333 129.907C128.335 130.242 128.338 130.577 128.337 130.911C128.334 132.003 128.308 133.096 128.468 134.18C128.488 134.308 128.532 134.433 128.562 134.546C129.099 134.609 130.633 134.586 130.85 134.515C130.834 134.429 130.833 134.336 130.797 134.257ZM128.324 125.207C128.284 125.997 127.863 126.396 127.08 126.456C126.814 126.476 126.546 126.462 126.279 126.458C126.204 126.457 126.129 126.438 126.038 126.425C126.022 126.34 125.997 126.266 125.997 126.193C125.995 124.83 125.996 123.468 125.998 122.106C125.998 122.041 126.014 121.976 126.029 121.87C126.141 121.857 126.227 121.839 126.313 121.839C126.625 121.836 126.937 121.834 127.249 121.841C127.358 121.844 127.472 121.858 127.574 121.895C128.022 122.058 128.325 122.479 128.33 122.964C128.337 123.712 128.36 124.461 128.324 125.207Z" fill="#2A378F"/>
<path d="M158.756 134.191C158.655 133.736 158.616 133.275 158.617 132.809C158.618 132.016 158.619 131.223 158.617 130.43C158.615 130.008 158.597 129.595 158.501 129.173C158.337 128.449 158.014 127.867 157.372 127.481C157.292 127.432 157.23 127.373 157.253 127.26C157.307 127.226 157.362 127.188 157.418 127.154C157.99 126.812 158.301 126.271 158.457 125.656C158.562 125.241 158.647 124.813 158.621 124.369C158.595 123.902 158.605 123.431 158.618 122.963C158.633 122.43 158.517 121.925 158.335 121.433C158.194 121.053 157.985 120.716 157.659 120.455C157.067 119.979 156.364 119.799 155.641 119.774C154.417 119.73 153.19 119.76 151.966 119.762C151.892 119.762 151.819 119.785 151.743 119.798C151.736 119.885 151.726 119.951 151.726 120.017C151.73 124.84 151.734 129.664 151.74 134.488C151.74 134.498 151.747 134.509 151.753 134.518C151.759 134.527 151.768 134.534 151.79 134.558H153.997V130.952C153.997 130.561 154.001 130.17 153.996 129.78C153.99 129.385 153.975 128.989 153.965 128.604C154.024 128.577 154.054 128.551 154.083 128.551C154.461 128.547 154.843 128.515 155.218 128.555C155.555 128.59 155.835 128.765 156.046 129.059C156.28 129.387 156.32 129.757 156.342 130.135C156.376 130.724 156.29 131.317 156.398 131.904C156.412 131.978 156.388 132.059 156.381 132.136C156.369 132.257 156.343 132.379 156.347 132.5C156.36 132.856 156.402 133.21 156.399 133.565C156.396 133.906 156.458 134.226 156.596 134.574C156.84 134.574 157.094 134.574 157.347 134.574C157.603 134.574 157.86 134.582 158.115 134.572C158.363 134.561 158.617 134.62 158.868 134.524C158.825 134.4 158.779 134.298 158.756 134.191ZM156.337 125.015C156.341 125.223 156.279 125.432 156.24 125.695C156.234 125.704 156.191 125.756 156.164 125.816C155.962 126.256 155.565 126.401 155.137 126.449C154.796 126.486 154.447 126.456 154.102 126.452C154.062 126.452 154.021 126.422 153.982 126.407C154.013 124.886 153.99 123.405 153.999 121.884C154.052 121.872 154.133 121.841 154.215 121.84C154.582 121.835 154.95 121.829 155.317 121.843C155.795 121.86 156.182 122.228 156.272 122.712C156.414 123.476 156.321 124.247 156.337 125.015Z" fill="#2A378F"/>
<path d="M110.837 134.562C110.074 134.58 109.333 134.583 108.621 134.562C108.586 134.523 108.577 134.515 108.572 134.506C108.567 134.497 108.563 134.484 108.563 134.474C108.559 129.695 108.556 124.915 108.553 120.136C108.553 120.081 108.554 120.025 108.556 119.968C108.557 119.946 108.559 119.924 108.564 119.902C108.569 119.881 108.579 119.86 108.589 119.84C108.593 119.831 108.603 119.824 108.61 119.815C108.837 119.748 110.37 119.728 110.844 119.787C110.918 119.952 110.896 120.132 110.869 120.304C110.804 120.726 110.816 121.143 110.867 121.566C110.901 121.852 110.903 122.149 110.867 122.435C110.816 122.847 110.809 123.252 110.871 123.664C110.898 123.847 110.876 124.041 110.858 124.229C110.8 124.862 110.795 125.493 110.916 126.103C111.014 126.205 111.11 126.173 111.211 126.166C111.397 126.153 111.585 126.161 111.771 126.162C112.149 126.166 112.527 126.18 112.904 126.171C113.1 126.167 113.296 126.122 113.526 126.091C113.538 125.958 113.559 125.83 113.56 125.701C113.562 123.982 113.561 122.261 113.561 120.542C113.561 120.364 113.559 120.184 113.562 120.006C113.562 119.941 113.574 119.876 113.58 119.816C113.816 119.747 115.315 119.728 115.782 119.785C115.876 119.887 115.836 120.016 115.836 120.134C115.839 121.206 115.838 122.278 115.838 123.35C115.838 126.823 115.838 130.296 115.839 133.769C115.839 134.012 115.852 134.254 115.859 134.511C115.826 134.527 115.787 134.562 115.749 134.562C115.038 134.566 114.326 134.565 113.63 134.565C113.521 134.44 113.562 134.311 113.562 134.193C113.56 132.34 113.561 130.486 113.56 128.632C113.56 128.512 113.551 128.391 113.546 128.264C113.459 128.239 113.397 128.206 113.336 128.205C112.567 128.202 111.799 128.203 111.03 128.205C110.998 128.205 110.967 128.22 110.937 128.227C110.838 128.325 110.812 128.436 110.84 128.567C110.86 128.653 110.891 128.745 110.879 128.829C110.813 129.34 110.942 129.852 110.875 130.357C110.807 130.869 110.83 131.38 110.828 131.892C110.828 132.203 110.871 132.513 110.879 132.824C110.883 132.978 110.847 133.133 110.838 133.288C110.83 133.421 110.808 133.561 110.838 133.687C110.909 133.966 110.881 134.238 110.835 134.561L110.837 134.562Z" fill="#2A378F"/>
<path d="M24.6699 123.106C24.6705 122.713 24.6224 122.332 24.5301 121.951C24.365 121.267 23.9692 120.729 23.4216 120.329C22.8814 119.936 22.2289 119.779 21.5656 119.768C20.3408 119.746 19.1153 119.76 17.8898 119.762C17.8162 119.762 17.742 119.782 17.6431 119.796V134.561C17.7694 134.565 17.8891 134.573 18.0094 134.573C18.8111 134.574 19.6134 134.581 20.415 134.572C21.0575 134.565 21.696 134.588 22.3399 134.457C23.098 134.303 23.6944 133.928 24.1056 133.31C24.4773 132.751 24.6685 132.106 24.6672 131.415C24.6632 128.645 24.6632 125.876 24.6699 123.106ZM22.2723 131.913C22.1634 132.281 21.8585 132.454 21.5175 132.48C21.008 132.517 20.4939 132.485 19.9818 132.48C19.9624 132.48 19.9423 132.461 19.9022 132.441C19.842 132.187 19.8287 122.284 19.8902 121.888C19.961 121.873 20.0433 121.841 20.1255 121.84C20.538 121.835 20.9512 121.819 21.3617 121.845C21.8886 121.878 22.1627 122.164 22.3292 122.58C22.4462 122.871 22.4535 123.163 22.4535 123.464C22.4515 125.988 22.4488 128.512 22.4569 131.036C22.4575 131.348 22.3572 131.627 22.2723 131.913Z" fill="#2A378F"/>
<path d="M140.089 122.894C140.092 122.873 140.086 122.85 140.081 122.828C140.003 122.528 140.005 122.219 139.917 121.915C139.774 121.421 139.569 120.969 139.224 120.601C138.627 119.964 137.874 119.648 137.002 119.625C136.768 119.618 136.531 119.647 136.301 119.618C135.911 119.571 135.542 119.683 135.193 119.796C134.527 120.013 133.987 120.416 133.614 121.049C133.252 121.663 133.095 122.328 133.089 123.014C133.069 125.751 133.077 128.488 133.086 131.224C133.087 131.544 133.14 131.865 133.191 132.183C133.253 132.571 133.397 132.929 133.597 133.27C133.858 133.715 134.213 134.061 134.659 134.301C135.194 134.589 135.769 134.749 136.387 134.711C136.464 134.705 136.543 134.71 136.696 134.71C137.005 134.68 137.385 134.724 137.773 134.598C138.237 134.448 138.651 134.233 139.023 133.932C139.194 133.793 139.361 133.63 139.475 133.444C139.922 132.715 140.091 131.905 140.093 131.058C140.097 129.26 140.094 127.461 140.094 125.663C140.094 125.205 140.077 124.746 140.099 124.289C140.121 123.823 140.018 123.36 140.089 122.894ZM137.596 132.181C137.547 132.304 137.417 132.416 137.296 132.483C136.84 132.739 136.37 132.76 135.902 132.501C135.696 132.387 135.577 132.201 135.488 131.994C135.392 131.766 135.35 131.529 135.351 131.278C135.359 129.905 135.355 128.531 135.355 127.158C135.355 125.785 135.356 124.367 135.353 122.971C135.353 122.648 135.448 122.357 135.627 122.094C135.831 121.797 136.115 121.654 136.481 121.689C136.558 121.696 136.636 121.699 136.714 121.701C137.246 121.716 137.521 121.924 137.701 122.429C137.788 122.674 137.826 122.919 137.826 123.181C137.82 125.871 137.817 128.562 137.83 131.252C137.831 131.593 137.714 131.886 137.596 132.181Z" fill="#2A378F"/>
<path d="M69.3921 122.879C69.3353 122.447 69.2851 122.021 69.136 121.61C68.7048 120.413 67.7955 119.836 66.5988 119.628C65.9803 119.656 65.3632 119.567 64.7441 119.74C63.8215 119.998 63.1308 120.498 62.7524 121.393C62.5338 121.909 62.4114 122.441 62.4188 123.011C62.4355 124.383 62.4241 125.757 62.4241 127.129C62.4235 128.535 62.4295 129.941 62.4208 131.348C62.4168 131.972 62.5478 132.562 62.8259 133.115C63.2244 133.908 63.8609 134.401 64.7327 134.581C64.7862 134.592 64.837 134.62 64.8905 134.631C65.0189 134.66 65.1479 134.698 65.2776 134.703C65.5558 134.715 65.8346 134.703 66.1127 134.711C66.4483 134.721 66.7712 134.673 67.0988 134.592C67.8015 134.419 68.3458 134.026 68.7643 133.451C68.8853 133.284 68.9869 133.103 69.0678 132.902C69.2236 132.516 69.3159 132.12 69.36 131.71C69.3968 131.368 69.4255 131.025 69.4369 130.681C69.4429 130.506 69.3874 130.329 69.3861 130.152C69.3807 129.148 69.3821 128.144 69.3847 127.139C69.3854 127.018 69.4121 126.896 69.4182 126.775C69.4269 126.586 69.4369 126.397 69.4309 126.209C69.4248 126.02 69.3834 125.832 69.3874 125.645C69.3948 125.257 69.4402 124.868 69.4369 124.48C69.4322 123.947 69.4616 123.414 69.3921 122.879ZM67.1102 126.852C67.1102 128.382 67.1109 129.912 67.1035 131.441C67.1029 131.605 67.0607 131.77 67.0213 131.929C66.9364 132.273 66.6736 132.458 66.3828 132.611C66.2725 132.627 66.1622 132.638 66.0532 132.658C65.4347 132.773 64.9153 132.367 64.7595 131.87C64.6645 131.567 64.6351 131.264 64.6351 130.95C64.6391 128.392 64.6358 125.836 64.6391 123.278C64.6398 122.888 64.6953 122.508 64.8925 122.155C65.0416 121.888 65.2636 121.744 65.5504 121.709C65.7583 121.683 65.9743 121.686 66.1836 121.707C66.5118 121.74 66.7779 121.908 66.9357 122.196C67.046 122.398 67.1122 122.62 67.1109 122.867C67.1035 124.195 67.1102 125.524 67.1102 126.852Z" fill="#2A378F"/>
<path d="M168.704 134.344C168.628 133.862 168.559 133.378 168.471 132.899C168.392 132.473 168.314 132.044 168.266 131.62C168.221 131.222 168.118 130.836 168.085 130.436C168.04 129.885 167.946 129.334 167.828 128.794C167.677 128.111 167.647 127.407 167.454 126.732C167.436 126.669 167.447 126.599 167.439 126.532C167.417 126.356 167.395 126.181 167.37 126.005C167.352 125.885 167.324 125.765 167.306 125.645C167.245 125.239 167.189 124.832 167.126 124.427C167.054 123.955 166.975 123.485 166.902 123.013C166.848 122.663 166.807 122.309 166.75 121.959C166.672 121.477 166.586 120.996 166.498 120.517C166.452 120.268 166.393 120.023 166.343 119.793C166.287 119.777 166.266 119.766 166.245 119.766C165.232 119.764 164.218 119.761 163.205 119.764C163.134 119.764 163.062 119.8 163.001 119.816C162.951 120.125 162.906 120.41 162.859 120.694C162.813 120.979 162.811 121.271 162.699 121.543C162.687 121.572 162.696 121.61 162.692 121.643C162.623 122.126 162.553 122.609 162.483 123.092C162.462 123.234 162.443 123.377 162.42 123.519C162.401 123.639 162.38 123.759 162.356 123.878C162.339 123.965 162.307 124.05 162.294 124.137C162.222 124.632 162.155 125.127 162.085 125.621C162.068 125.742 162.039 125.861 162.022 125.981C161.968 126.354 161.925 126.729 161.863 127.1C161.792 127.515 161.693 127.924 161.627 128.339C161.564 128.745 161.541 129.156 161.478 129.562C161.391 130.121 161.296 130.679 161.179 131.233C161.089 131.656 161.106 132.098 160.955 132.509C160.981 133.005 160.797 133.469 160.749 133.953C160.731 134.139 160.682 134.321 160.641 134.537C161.003 134.607 161.346 134.57 161.685 134.571C162.036 134.571 162.389 134.602 162.73 134.551C162.809 134.032 162.884 133.55 162.955 133.067C162.983 132.881 162.991 132.691 163.033 132.508C163.081 132.308 163.052 132.082 163.203 131.912H166.037C166.176 132.803 166.311 133.676 166.448 134.554H168.704C168.704 134.454 168.712 134.398 168.704 134.344ZM165.672 129.876C165.414 129.958 163.859 129.974 163.456 129.898C163.456 129.776 163.442 129.666 163.458 129.562C163.533 129.047 163.616 128.533 163.698 128.02C163.779 127.506 163.867 126.993 163.945 126.478C164.001 126.106 164.043 125.732 164.098 125.359C164.157 124.954 164.227 124.55 164.288 124.145C164.318 123.948 164.342 123.75 164.364 123.551C164.401 123.212 164.51 122.889 164.545 122.549C164.568 122.551 164.59 122.553 164.613 122.555C164.64 122.66 164.675 122.764 164.691 122.871C164.776 123.429 164.859 123.988 164.937 124.547C164.996 124.964 165.045 125.382 165.098 125.8C165.101 125.822 165.098 125.845 165.102 125.867C165.172 126.27 165.244 126.674 165.313 127.079C165.335 127.21 165.353 127.342 165.361 127.474C165.371 127.652 165.367 127.828 165.453 127.995C165.491 128.07 165.492 128.168 165.494 128.255C165.5 128.445 165.485 128.635 165.593 128.806C165.615 128.842 165.619 128.892 165.623 128.935C165.649 129.167 165.678 129.397 165.695 129.629C165.702 129.714 165.68 129.801 165.672 129.876Z" fill="#2A378F"/>
<path d="M149.533 125.335C149.504 124.779 149.529 124.22 149.526 123.662C149.523 123.14 149.533 122.622 149.395 122.104C149.128 121.106 148.611 120.361 147.593 120.003C147.264 119.888 146.918 119.895 146.598 119.769C146.559 119.754 146.51 119.763 146.465 119.763C145.308 119.762 144.15 119.761 142.992 119.763C142.908 119.763 142.824 119.79 142.752 119.802C142.732 119.863 142.714 119.894 142.712 119.926C142.705 120.003 142.704 120.082 142.704 120.16C142.708 124.936 142.713 129.713 142.718 134.49C142.718 134.5 142.727 134.51 142.733 134.519C142.74 134.527 142.748 134.535 142.754 134.542C143.093 134.595 144.696 134.585 144.977 134.521V134.17C144.977 132.574 144.977 130.978 144.978 129.381C144.978 129.252 144.996 129.123 145.004 128.992C145.548 129 146.055 129.002 146.564 128.961C147.004 128.926 147.411 128.825 147.809 128.659C148.664 128.303 149.151 127.616 149.37 126.755C149.486 126.299 149.559 125.822 149.533 125.335ZM147.251 125.737C147.25 126.024 147.152 126.295 146.921 126.686C146.341 127.046 145.692 126.911 145.03 126.924C145.01 126.817 144.979 126.734 144.979 126.65C144.977 125.132 144.977 123.614 144.979 122.096C144.979 122.031 145 121.967 145.008 121.916C145.04 121.89 145.057 121.866 145.075 121.866C145.496 121.857 145.922 121.813 146.339 121.856C146.704 121.893 147.016 122.101 147.15 122.468C147.221 122.662 147.245 122.882 147.247 123.091C147.257 123.973 147.253 124.854 147.251 125.737Z" fill="#2A378F"/>
<path d="M106.054 129.082C106.064 129.25 106.076 129.358 106.076 129.466C106.078 129.924 106.057 130.383 106.082 130.84C106.11 131.347 106.029 131.847 105.921 132.328C105.743 133.117 105.348 133.795 104.636 134.241C104.379 134.401 104.093 134.484 103.81 134.583C103.188 134.799 102.552 134.712 101.926 134.694C101.462 134.68 101.014 134.5 100.612 134.253C100.032 133.897 99.662 133.384 99.4407 132.733C99.2588 132.197 99.1833 131.661 99.1846 131.101C99.1899 128.353 99.1772 125.607 99.1946 122.86C99.1993 122.128 99.4132 121.435 99.8291 120.821C100.083 120.446 100.423 120.172 100.832 119.971C101.331 119.726 101.854 119.611 102.408 119.624C102.619 119.628 102.831 119.624 103.042 119.625C103.634 119.63 104.178 119.807 104.67 120.126C105.146 120.435 105.482 120.858 105.705 121.396C105.967 122.027 106.056 122.678 106.074 123.347C106.084 123.694 106.078 124.04 106.076 124.386C106.076 124.483 106.064 124.581 106.058 124.672C105.771 124.732 104.238 124.735 103.946 124.681C103.839 124.585 103.875 124.454 103.874 124.336C103.871 123.845 103.873 123.353 103.871 122.862C103.87 122.391 103.694 122.014 103.261 121.796C103.136 121.733 102.991 121.678 102.855 121.676C102.559 121.671 102.258 121.674 101.991 121.843C101.783 121.973 101.628 122.155 101.568 122.384C101.504 122.629 101.464 122.887 101.464 123.14C101.456 125.619 101.46 128.098 101.457 130.577C101.457 130.765 101.415 130.953 101.418 131.141C101.42 131.306 101.451 131.471 101.478 131.635C101.498 131.755 101.532 131.873 101.561 131.996C101.73 132.238 101.896 132.491 102.249 132.63C102.369 132.63 102.548 132.618 102.724 132.632C103.395 132.686 103.905 132.173 103.878 131.472C103.853 130.825 103.873 130.176 103.873 129.529C103.873 129.418 103.873 129.308 103.873 129.167C103.99 129.136 104.091 129.091 104.195 129.085C104.395 129.072 104.596 129.075 104.796 129.083C105.047 129.093 105.298 129.122 105.549 129.127C105.699 129.13 105.85 129.102 106.054 129.083V129.082Z" fill="#2A378F"/>
<path d="M200.429 124.673C200.153 124.731 198.689 124.735 198.362 124.676C198.348 124.604 198.32 124.522 198.318 124.438C198.312 124.204 198.324 123.968 198.314 123.735C198.298 123.368 198.291 123 198.241 122.638C198.183 122.225 197.932 121.931 197.565 121.742C197.499 121.709 197.414 121.706 197.337 121.705C197.093 121.7 196.848 121.703 196.638 121.703C196.278 121.829 196.075 122.07 195.926 122.38C195.885 122.675 195.84 122.983 195.798 123.291C195.79 123.357 195.786 123.425 195.79 123.49C195.804 123.745 195.837 124 195.838 124.255C195.842 126.298 195.841 128.341 195.838 130.385C195.838 130.551 195.792 130.716 195.796 130.881C195.806 131.325 195.806 131.779 196.056 132.171C196.24 132.456 196.501 132.634 196.859 132.63C197.082 132.628 197.304 132.63 197.512 132.63C197.576 132.587 197.618 132.549 197.668 132.527C198.108 132.334 198.203 131.951 198.258 131.522C198.348 130.81 198.301 130.097 198.318 129.385C198.32 129.308 198.333 129.232 198.342 129.151C198.388 129.128 198.427 129.092 198.466 129.092C198.843 129.095 199.22 129.106 199.598 129.112C199.685 129.114 199.772 129.112 199.859 129.108C200.034 129.101 200.208 129.09 200.398 129.081C200.423 129.186 200.455 129.259 200.455 129.331C200.458 130.023 200.456 130.716 200.453 131.408C200.453 131.474 200.445 131.542 200.427 131.606C200.33 131.959 200.334 132.33 200.202 132.679C200.087 132.98 199.962 133.268 199.77 133.528C199.578 133.789 199.355 134.016 199.082 134.191C198.793 134.378 198.48 134.493 198.148 134.596C197.541 134.786 196.928 134.743 196.331 134.69C195.33 134.603 194.505 134.132 194.015 133.212C193.835 132.874 193.707 132.5 193.648 132.115C193.609 131.863 193.575 131.607 193.575 131.354C193.57 128.562 193.571 125.771 193.572 122.979C193.572 122.702 193.615 122.435 193.676 122.159C193.742 121.863 193.825 121.582 193.939 121.305C194.144 120.804 194.479 120.409 194.934 120.127C195.224 119.947 195.518 119.754 195.881 119.752C196.472 119.51 197.095 119.602 197.695 119.645C198.362 119.693 198.969 119.961 199.468 120.459C200.053 121.043 200.271 121.767 200.398 122.55C200.507 123.217 200.434 123.886 200.456 124.553C200.457 124.595 200.44 124.637 200.432 124.674L200.429 124.673Z" fill="#2A378F"/>
<path d="M177.597 124.709C176.915 124.709 176.293 124.711 175.67 124.705C175.61 124.705 175.551 124.657 175.458 124.617C175.458 124.444 175.458 124.269 175.458 124.092C175.458 123.791 175.472 123.488 175.454 123.188C175.434 122.856 175.389 122.527 175.25 122.215C175.124 121.932 174.89 121.786 174.619 121.719C174.262 121.629 173.91 121.638 173.561 121.825C173.276 121.978 173.147 122.22 173.062 122.494C172.992 122.715 172.965 122.95 172.935 123.181C172.92 123.301 172.939 123.425 172.941 123.547C172.943 123.745 172.945 123.943 172.943 124.14C172.941 124.274 172.922 124.407 172.927 124.54C172.939 124.807 172.975 125.072 172.977 125.338C172.983 126.142 172.983 126.945 172.977 127.75C172.975 128.005 172.937 128.259 172.928 128.514C172.923 128.657 172.943 128.802 172.951 128.946C172.959 129.079 172.991 129.215 172.973 129.344C172.892 129.933 172.892 130.52 172.977 131.107C173.007 131.315 173.02 131.527 173.046 131.735C173.09 132.076 173.259 132.332 173.56 132.506C173.69 132.581 173.816 132.634 173.967 132.631C174.19 132.627 174.412 132.63 174.635 132.63C174.706 132.587 174.768 132.539 174.837 132.507C175.206 132.343 175.331 132.026 175.392 131.657C175.508 130.958 175.434 130.255 175.455 129.554C175.459 129.423 175.455 129.291 175.455 129.183C175.624 129.038 175.787 129.065 175.933 129.098C176.156 129.148 176.37 129.152 176.591 129.095C176.675 129.073 176.769 129.075 176.857 129.083C177.087 129.105 177.316 129.138 177.569 129.169C177.578 129.255 177.594 129.34 177.595 129.425C177.597 129.906 177.597 130.385 177.595 130.866C177.594 131.278 177.563 131.682 177.492 132.092C177.411 132.564 177.228 132.986 177.023 133.398C176.816 133.816 176.44 134.091 176.035 134.315C175.57 134.572 175.076 134.717 174.541 134.711C174.274 134.707 174.007 134.713 173.74 134.711C172.9 134.704 172.185 134.388 171.591 133.806C171.183 133.406 170.989 132.887 170.839 132.342C170.699 131.839 170.708 131.329 170.708 130.817C170.708 128.193 170.703 125.569 170.714 122.946C170.716 122.247 170.885 121.571 171.254 120.975C171.555 120.488 171.983 120.113 172.527 119.899C173.005 119.711 173.493 119.577 174.016 119.622C174.17 119.636 174.327 119.624 174.483 119.624C175.257 119.62 175.939 119.889 176.538 120.362C176.828 120.59 177.018 120.908 177.186 121.238C177.379 121.619 177.447 122.033 177.531 122.445C177.626 122.911 177.584 123.378 177.595 123.845C177.601 124.122 177.596 124.398 177.596 124.71L177.597 124.709Z" fill="#2A378F"/>
<path d="M45.19 119.765C47.2573 119.765 49.2724 119.765 51.2882 119.767C51.3296 119.767 51.3704 119.793 51.4045 119.803C51.4807 120.061 51.4908 121.461 51.4139 121.807C51.3082 121.816 51.1912 121.835 51.0742 121.836C49.9824 121.838 48.8906 121.836 47.7995 121.839C47.6711 121.839 47.5287 121.801 47.4091 121.937C47.4913 122.565 47.4418 123.211 47.4498 123.855C47.4572 124.491 47.4505 125.128 47.4532 125.765C47.4532 125.84 47.4732 125.916 47.4879 126.024C47.613 126.035 47.7306 126.054 47.8483 126.054C48.6392 126.057 49.4302 126.056 50.2211 126.056C50.3415 126.056 50.4625 126.056 50.6015 126.056C50.7112 126.399 50.6483 126.723 50.6564 127.04C50.6644 127.361 50.6751 127.683 50.641 128.037C50.5019 128.05 50.3849 128.07 50.2672 128.07C49.4763 128.073 48.6854 128.072 47.8944 128.072C47.7741 128.072 47.6538 128.072 47.5214 128.072C47.492 128.176 47.4545 128.247 47.4545 128.319C47.4518 129.66 47.4532 131 47.4545 132.34C47.4545 132.372 47.4679 132.404 47.4839 132.474C47.5943 132.48 47.7119 132.493 47.8296 132.493C48.8987 132.494 49.9684 132.493 51.0375 132.494C51.1578 132.494 51.2775 132.503 51.3851 132.507C51.478 132.749 51.5035 134.035 51.4359 134.521C51.4279 134.529 51.4212 134.537 51.4119 134.544C51.4032 134.55 51.3925 134.558 51.3831 134.558C49.4228 134.564 47.4632 134.569 45.5029 134.573C45.4147 134.573 45.3264 134.566 45.2435 134.562C45.1399 134.448 45.18 134.319 45.18 134.202C45.1773 132.314 45.178 130.427 45.178 128.539C45.178 125.759 45.178 122.977 45.178 120.196C45.178 120.066 45.1847 119.934 45.1887 119.765H45.19Z" fill="#2A378F"/>
<path d="M181.861 121.894C181.551 121.801 181.284 121.847 181.021 121.839C180.765 121.831 180.508 121.837 180.252 121.837C179.987 121.837 179.721 121.837 179.463 121.837C179.39 121.589 179.371 120.305 179.426 119.814C179.54 119.724 179.679 119.763 179.807 119.763C181.566 119.76 183.326 119.762 185.085 119.762C185.463 119.762 185.842 119.76 186.221 119.762C186.318 119.762 186.415 119.773 186.507 119.779C186.569 120.053 186.576 121.475 186.519 121.81C186.451 121.819 186.377 121.836 186.303 121.836C185.713 121.839 185.123 121.837 184.533 121.839C184.424 121.839 184.316 121.851 184.195 121.858C184.176 121.957 184.155 122.03 184.149 122.104C184.142 122.193 184.147 122.283 184.147 122.372C184.147 126.313 184.147 130.254 184.147 134.195V134.558C183.389 134.586 182.66 134.574 181.943 134.568C181.836 134.444 181.876 134.315 181.875 134.198C181.872 132.668 181.873 131.139 181.873 129.609C181.873 127.175 181.873 124.742 181.873 122.308C181.873 122.176 181.866 122.045 181.861 121.893V121.894Z" fill="#2A378F"/>
<path d="M60.4706 119.761V121.811C60.379 121.82 60.2848 121.836 60.1905 121.836C59.6115 121.839 59.0325 121.836 58.4542 121.838C58.3338 121.838 58.2128 121.847 58.0604 121.853C58.0443 121.966 58.0203 122.06 58.0189 122.155C58.0142 122.545 58.0169 122.936 58.0169 123.327C58.0169 126.91 58.0176 130.492 58.0169 134.075C58.0169 134.228 58.0102 134.381 58.0069 134.526C57.7107 134.587 56.0907 134.591 55.7551 134.532C55.7324 134.164 55.7478 133.788 55.7451 133.413C55.7417 133.023 55.7444 132.632 55.7444 132.241C55.7444 131.861 55.7444 131.482 55.7444 131.103C55.7444 130.723 55.7444 130.344 55.7444 129.964C55.7444 129.574 55.7444 129.183 55.7444 128.792C55.7444 128.413 55.7444 128.034 55.7444 127.654C55.7444 127.274 55.7444 126.872 55.7444 126.482C55.7444 126.102 55.7444 125.723 55.7444 125.343C55.7444 124.964 55.7444 124.585 55.7444 124.205C55.7444 123.814 55.7444 123.423 55.7444 123.033C55.7444 122.655 55.7444 122.276 55.7444 121.866C55.6287 121.855 55.5338 121.839 55.4389 121.838C54.8599 121.835 54.2809 121.838 53.7026 121.836C53.5942 121.836 53.4853 121.827 53.3836 121.822C53.3228 121.546 53.3148 120.129 53.3736 119.773C54.1518 119.743 54.9381 119.765 55.7243 119.761C56.5032 119.757 57.2828 119.761 58.0617 119.761C58.8513 119.761 59.6402 119.761 60.4706 119.761V119.761Z" fill="#2A378F"/>
<path d="M43.0564 132.493V134.535C42.799 134.587 37.3173 134.592 37.0057 134.537C36.999 134.531 36.9897 134.523 36.9843 134.514C36.9783 134.505 36.9723 134.494 36.9723 134.484C36.9676 129.662 36.9643 124.842 36.9609 120.02C36.9609 119.954 36.9703 119.888 36.975 119.825C37.2043 119.746 38.837 119.73 39.2248 119.807C39.2288 119.94 39.2361 120.081 39.2361 120.223C39.2361 124.163 39.2361 128.103 39.2368 132.043C39.2368 132.173 39.2468 132.303 39.2542 132.464C39.4006 132.475 39.5189 132.492 39.6366 132.492C40.6381 132.494 41.6403 132.493 42.6419 132.493C42.7622 132.493 42.8826 132.493 43.0557 132.493L43.0564 132.493Z" fill="#2A378F"/>
<path d="M190.965 134.558H188.755C188.733 134.535 188.725 134.527 188.719 134.518C188.713 134.509 188.704 134.499 188.704 134.489C188.699 129.665 188.694 124.841 188.69 120.017C188.69 119.952 188.701 119.886 188.705 119.824C188.934 119.747 190.319 119.723 190.93 119.785C190.94 119.862 190.961 119.946 190.962 120.029C190.965 120.431 190.963 120.834 190.963 121.236C190.963 125.558 190.963 129.88 190.963 134.202C190.963 134.311 190.963 134.419 190.963 134.558H190.965Z" fill="#2A378F"/>
<path d="M118.697 119.778C119.423 119.743 120.141 119.766 120.878 119.765C120.893 119.856 120.914 119.93 120.916 120.003C120.92 120.227 120.918 120.45 120.918 120.673C120.918 125.161 120.918 129.649 120.918 134.137C120.918 134.268 120.918 134.399 120.918 134.521C120.568 134.598 118.946 134.59 118.701 134.519C118.693 134.511 118.685 134.503 118.679 134.493C118.673 134.484 118.667 134.473 118.666 134.463C118.659 134.364 118.646 134.264 118.646 134.164C118.647 129.419 118.649 124.674 118.652 119.929C118.652 119.898 118.671 119.866 118.697 119.777L118.697 119.778Z" fill="#2A378F"/>
<path d="M106.317 139.747C106.393 139.681 106.427 139.627 106.47 139.619C106.567 139.602 106.671 139.594 106.768 139.608C107.266 139.686 107.761 139.692 108.259 139.608C108.367 139.59 108.483 139.598 108.592 139.614C108.644 139.622 108.688 139.679 108.781 139.747C108.572 139.794 108.417 139.828 108.267 139.862C108.171 140.091 108.211 140.299 108.264 140.503C108.463 141.269 108.666 142.034 108.87 142.798C108.98 143.207 109.095 143.614 109.207 144.022C109.304 144.376 109.398 144.73 109.499 145.083C109.523 145.166 109.57 145.242 109.627 145.366C109.675 145.281 109.712 145.234 109.732 145.181C110.209 143.884 110.683 142.587 111.161 141.291C111.331 140.831 111.51 140.375 111.681 139.916C111.721 139.808 111.76 139.708 111.904 139.68C112.059 139.787 112.085 139.973 112.142 140.133C112.445 140.983 112.737 141.836 113.034 142.689C113.301 143.456 113.569 144.224 113.836 144.991C113.875 145.102 113.888 145.232 114.05 145.291C114.102 145.149 114.158 145.018 114.198 144.883C114.511 143.861 114.823 142.839 115.13 141.815C115.27 141.345 115.398 140.872 115.532 140.401C115.576 140.248 115.581 140.095 115.528 139.916C115.353 139.858 115.171 139.798 114.932 139.718C115.036 139.659 115.079 139.615 115.124 139.613C115.257 139.606 115.392 139.601 115.523 139.621C115.889 139.678 116.251 139.684 116.616 139.618C116.742 139.596 116.879 139.567 116.968 139.749C116.903 139.77 116.855 139.8 116.808 139.8C116.546 139.795 116.388 139.951 116.293 140.161C116.138 140.505 115.993 140.856 115.873 141.214C115.332 142.841 114.802 144.473 114.264 146.101C114.187 146.333 114.086 146.558 113.996 146.785C113.962 146.87 113.92 146.948 113.787 146.958C113.75 146.906 113.694 146.852 113.665 146.785C113.546 146.509 113.425 146.233 113.325 145.95C112.85 144.606 112.384 143.26 111.911 141.916C111.846 141.732 111.826 141.525 111.651 141.339C111.585 141.499 111.527 141.627 111.478 141.759C111.04 142.928 110.603 144.097 110.166 145.266C110.01 145.683 109.851 146.1 109.694 146.517C109.631 146.684 109.559 146.845 109.415 146.968C109.24 146.955 109.2 146.82 109.159 146.696C109.07 146.42 108.988 146.143 108.904 145.865C108.649 145.012 108.394 144.158 108.14 143.304C107.899 142.492 107.662 141.68 107.419 140.87C107.358 140.667 107.285 140.468 107.21 140.271C107.099 139.979 106.872 139.842 106.573 139.804C106.502 139.795 106.433 139.773 106.316 139.747H106.317Z" fill="#6293CD"/>
<path d="M50.0459 146.64C49.7223 146.634 49.4288 146.523 49.1834 146.328C48.932 146.128 48.696 145.902 48.4861 145.659C48.115 145.23 47.7674 144.781 47.4144 144.336C47.2211 144.094 47.0379 143.844 46.834 143.576C46.9029 143.493 46.9651 143.419 47.0259 143.343C47.1924 143.134 47.3742 142.935 47.52 142.713C47.7888 142.305 47.9191 141.855 47.9345 141.358C47.9592 140.558 47.2606 139.836 46.5699 139.726C46.2524 139.676 45.9328 139.639 45.6132 139.604C45.5029 139.592 45.3906 139.601 45.2796 139.608C45.0696 139.623 44.8597 139.659 44.6504 139.656C44.2734 139.651 43.8969 139.621 43.5199 139.606C43.4082 139.602 43.2785 139.57 43.1909 139.743C43.3467 139.786 43.4797 139.836 43.6168 139.859C43.7967 139.888 43.8976 139.99 43.9277 140.16C43.9531 140.301 43.9752 140.446 43.9752 140.59C43.9785 142.232 43.9778 143.874 43.9772 145.515C43.9772 145.65 43.9865 145.786 43.9645 145.917C43.9257 146.153 43.9578 146.414 43.7639 146.597C43.6282 146.668 43.4436 146.597 43.336 146.774C43.3922 146.8 43.4296 146.833 43.4677 146.833C44.1691 146.836 44.8704 146.834 45.5717 146.831C45.5945 146.83 45.6172 146.793 45.6546 146.76C45.531 146.647 45.3845 146.656 45.2488 146.632C44.9854 146.583 44.8851 146.479 44.8584 146.209C44.8296 145.921 44.7982 145.633 44.7902 145.344C44.7781 144.92 44.7848 144.495 44.7895 144.071C44.7902 143.998 44.8203 143.925 44.8403 143.839H46.0451C46.132 143.94 46.231 144.044 46.3172 144.158C46.828 144.832 47.3281 145.515 47.8483 146.182C48.107 146.513 48.4366 146.776 48.8759 146.805C49.3298 146.835 49.7865 146.826 50.2425 146.83C50.2665 146.83 50.2913 146.795 50.3267 146.768C50.2679 146.634 50.1522 146.642 50.0459 146.64ZM46.112 143.437C45.7589 143.504 45.4273 143.415 45.0863 143.402C44.9948 143.399 44.9052 143.332 44.8049 143.291V140.167C44.9433 139.933 45.1893 139.987 45.3986 139.963C45.5276 139.949 45.6633 139.982 45.7944 140.005C46.3393 140.101 46.7224 140.396 46.9256 140.922C47.1884 141.604 47.1824 142.269 46.836 142.92C46.6809 143.212 46.4523 143.372 46.112 143.437Z" fill="#6293CD"/>
<path d="M62.1067 146.476C62.3186 146.567 62.5332 146.658 62.7478 146.75C62.7472 146.766 62.7458 146.782 62.7451 146.798H60.7113C60.724 146.756 60.7267 146.72 60.7361 146.719C61.0864 146.654 61.1914 146.41 61.1914 146.092C61.192 145.313 61.1914 144.535 61.1914 143.721H57.6846C57.7709 144.68 57.5215 145.66 57.8712 146.591C58.0965 146.633 58.267 146.664 58.4375 146.695C58.4368 146.733 58.4355 146.771 58.4348 146.808C57.7528 146.879 57.0655 146.797 56.3829 146.849C56.3562 146.805 56.3294 146.76 56.3027 146.716C56.3555 146.702 56.4077 146.685 56.4605 146.675C56.8175 146.612 56.8737 146.344 56.8777 146.05C56.885 145.525 56.8837 145.001 56.8837 144.476C56.8844 143.538 56.8837 142.601 56.8837 141.663C56.8837 141.223 56.6865 140.943 56.292 140.823V140.701C56.9191 140.701 57.5429 140.701 58.166 140.705C58.1821 140.705 58.1975 140.755 58.2289 140.809C58.0998 140.858 57.9822 140.904 57.8123 140.969C57.587 141.707 57.7187 142.474 57.708 143.254H61.1713V140.986C60.946 140.926 60.7621 140.878 60.5783 140.829L60.5696 140.766C60.6552 140.736 60.7414 140.679 60.8263 140.681C61.3986 140.693 61.9709 140.717 62.5439 140.737C62.5472 140.762 62.5506 140.786 62.5539 140.81C62.4195 140.867 62.2852 140.923 62.0812 141.01C61.999 142.802 61.9983 144.61 62.1067 146.477V146.476Z" fill="#6293CD"/>
<path d="M93.1049 145.571C93.1243 144.371 93.1023 143.224 93.1003 142.078C92.9833 141.728 93.1263 141.337 92.9111 140.972C92.7332 140.924 92.5366 140.871 92.2766 140.8C92.3849 140.735 92.4337 140.683 92.4838 140.681C92.6383 140.675 92.794 140.693 92.9492 140.694C93.2132 140.696 93.4787 140.703 93.7421 140.689C93.8979 140.68 94.043 140.66 94.1787 140.815C93.9982 140.876 93.8464 140.927 93.6726 140.985C93.6625 141.176 93.6458 141.352 93.6452 141.528C93.6425 142.633 93.6485 143.738 93.6405 144.844C93.6371 145.331 93.6057 145.818 93.591 146.305C93.5883 146.394 93.6024 146.483 93.6084 146.571C93.6157 146.691 93.6084 146.716 93.5175 146.889C93.24 146.807 93.0541 146.589 92.8589 146.402C92.312 145.879 91.7771 145.342 91.2516 144.796C90.4794 143.995 89.7192 143.181 88.9537 142.373C88.8574 142.271 88.7551 142.174 88.6281 142.048C88.5512 142.269 88.5793 142.447 88.584 142.619C88.5953 143.03 88.6221 143.442 88.6361 143.854C88.6615 144.577 88.6809 145.302 88.7063 146.026C88.7144 146.256 88.7658 146.469 88.9758 146.599C89.1275 146.637 89.2733 146.674 89.5006 146.731C89.3803 146.795 89.3381 146.837 89.2954 146.837C88.7391 146.841 88.1822 146.84 87.6259 146.837C87.5878 146.837 87.5504 146.806 87.4922 146.781C87.5992 146.573 87.8071 146.68 87.9575 146.588C88.11 146.463 88.0959 146.266 88.0979 146.079C88.1026 145.532 88.0993 144.985 88.0993 144.438C88.0993 143.712 88.0986 142.987 88.0986 142.261C88.0986 141.838 88.0986 141.416 88.1006 140.994C88.1006 140.85 88.0959 140.701 88.255 140.602C88.4797 140.663 88.606 140.86 88.7598 141.009C89.0888 141.325 89.3963 141.664 89.7132 141.993C90.331 142.636 90.9494 143.277 91.5659 143.921C91.9897 144.363 92.4103 144.809 92.8308 145.254C92.9131 145.342 92.9893 145.435 93.1069 145.57L93.1049 145.571Z" fill="#6293CD"/>
<path d="M101.694 142.205C101.427 141.743 101.074 141.377 100.588 141.129C99.9029 140.778 99.1635 140.723 98.422 140.68C98.0463 140.658 97.6692 140.683 97.2908 140.719C96.897 140.756 96.4918 140.773 96.0947 140.685C95.9596 140.654 95.8166 140.665 95.7236 140.825C95.9269 140.885 96.1041 140.937 96.2953 140.993C96.3227 141.282 96.3681 141.545 96.3695 141.81C96.3775 142.994 96.3768 144.178 96.3702 145.361C96.3681 145.672 96.3407 145.984 96.308 146.294C96.2973 146.398 96.2364 146.497 96.2144 146.558C96.0807 146.669 95.8961 146.599 95.846 146.811C95.9416 146.819 96.0232 146.834 96.1054 146.834C96.4952 146.839 96.889 146.804 97.2734 146.85C97.7514 146.908 98.2281 146.893 98.7048 146.912C99.1354 146.928 99.5479 146.844 99.9477 146.704C100.208 146.613 100.475 146.51 100.703 146.358C101.296 145.963 101.707 145.418 101.912 144.728C102.169 143.859 102.159 143.011 101.694 142.205ZM101.154 144.465C101.113 144.742 101.056 145.01 100.953 145.271C100.876 145.464 100.771 145.625 100.626 145.768C100.21 146.179 99.7218 146.424 99.1374 146.514C98.6788 146.584 98.2301 146.567 97.7795 146.495C97.6391 146.472 97.5054 146.41 97.3851 146.37C97.2166 146.157 97.1865 145.929 97.1865 145.691C97.1858 144.598 97.1832 143.505 97.1811 142.412C97.1805 142.099 97.1791 141.787 97.1818 141.475C97.1825 141.365 97.1925 141.257 97.1992 141.129C97.5489 141.032 97.8477 141 98.1646 141.045C98.4936 141.092 98.8272 141.094 99.1515 141.184C99.7612 141.354 100.259 141.69 100.644 142.19C101.167 142.868 101.278 143.639 101.154 144.465Z" fill="#6293CD"/>
<path d="M140.007 145.566C140.019 145.446 140.033 145.373 140.033 145.301C140.032 144.62 140.065 143.936 140.015 143.259C139.971 142.657 139.983 142.056 139.955 141.456C139.948 141.304 139.904 141.154 139.872 140.98C139.652 140.928 139.453 140.882 139.208 140.824C139.283 140.76 139.325 140.694 139.371 140.69C139.526 140.676 139.686 140.664 139.837 140.691C140.126 140.745 140.407 140.749 140.696 140.69C140.828 140.663 140.985 140.625 141.099 140.816C141.017 140.841 140.951 140.866 140.883 140.882C140.646 140.939 140.581 140.998 140.57 141.243C140.556 141.577 140.568 141.913 140.558 142.248C140.552 142.492 140.529 142.736 140.515 142.98C140.511 143.036 140.504 143.093 140.511 143.147C140.596 143.836 140.471 144.524 140.501 145.213C140.519 145.635 140.509 146.059 140.505 146.481C140.504 146.61 140.533 146.75 140.423 146.88C140.186 146.817 140.023 146.646 139.861 146.488C139.262 145.904 138.669 145.315 138.084 144.717C137.462 144.081 136.849 143.436 136.235 142.791C136.067 142.614 135.91 142.425 135.744 142.244C135.694 142.189 135.632 142.142 135.565 142.082C135.46 142.167 135.492 142.273 135.494 142.366C135.512 143.079 135.534 143.792 135.552 144.505C135.559 144.795 135.55 145.086 135.563 145.376C135.575 145.664 135.599 145.953 135.631 146.241C135.657 146.483 135.766 146.587 136.006 146.639C136.119 146.663 136.245 146.658 136.356 146.772C136.302 146.802 136.267 146.838 136.232 146.838C135.636 146.838 135.04 146.833 134.413 146.829C134.502 146.53 134.818 146.726 134.913 146.523C135.016 146.272 135.014 146.004 135.014 145.737C135.014 144.186 135.014 142.634 135.014 141.082C135.014 140.993 135.014 140.904 135.018 140.815C135.022 140.718 135.058 140.642 135.189 140.605C135.235 140.632 135.311 140.658 135.361 140.709C135.801 141.166 136.235 141.629 136.676 142.086C137.07 142.495 137.475 142.895 137.869 143.305C138.292 143.746 138.71 144.195 139.129 144.641C139.41 144.938 139.69 145.236 140.003 145.567L140.007 145.566Z" fill="#6293CD"/>
<path d="M75.0891 144.137C74.8718 143.853 74.5917 143.667 74.2908 143.497C74.2086 143.451 74.1277 143.402 74.0113 143.334C74.121 143.212 74.1985 143.121 74.2814 143.036C74.5121 142.798 74.6672 142.522 74.7367 142.195C74.8237 141.784 74.6371 141.29 74.2935 141.051C73.7586 140.681 73.1489 140.641 72.5364 140.691C72.1467 140.723 71.7642 140.755 71.3771 140.687C71.2802 140.669 71.1772 140.674 71.0789 140.687C71.0428 140.691 71.0134 140.75 70.9492 140.815C71.0676 140.842 71.1384 140.86 71.21 140.874C71.4339 140.914 71.5409 141.016 71.5777 141.24C71.5884 141.305 71.5864 141.373 71.5864 141.44C71.5864 142.958 71.585 144.476 71.5864 145.994C71.5864 146.212 71.5342 146.412 71.4286 146.595C71.3029 146.646 71.1852 146.693 71.0582 146.744C71.1465 146.875 71.2541 146.835 71.3464 146.836C71.8364 146.84 72.3258 146.839 72.8159 146.841C73.09 146.841 73.3581 146.902 73.6409 146.85C73.907 146.802 74.1651 146.745 74.4045 146.627C75.0704 146.297 75.3752 145.731 75.3833 145.008C75.3866 144.696 75.2903 144.401 75.0891 144.137V144.137ZM72.4047 141.07C73.0927 140.9 73.6476 141.104 73.8776 141.598C74.1257 142.131 74.0708 142.9 73.5279 143.271C73.1743 143.276 72.7952 143.428 72.4047 143.245V141.07ZM74.3991 146.026C74.3055 146.231 74.139 146.363 73.9378 146.433C73.5534 146.569 73.1555 146.57 72.7631 146.471C72.515 146.408 72.4074 146.251 72.3954 145.978C72.384 145.711 72.3873 145.444 72.3867 145.177C72.386 144.787 72.3853 144.398 72.3873 144.009C72.388 143.9 72.3987 143.792 72.4081 143.629C72.5665 143.629 72.6762 143.622 72.7838 143.631C72.971 143.648 73.1589 143.666 73.3441 143.701C73.7232 143.77 74.0147 143.987 74.2293 144.297C74.603 144.838 74.6772 145.416 74.3991 146.026Z" fill="#6293CD"/>
<path d="M86.4563 146.636C86.2317 146.612 86.0565 146.497 85.9321 146.318C85.8058 146.135 85.6801 145.947 85.5932 145.744C85.412 145.326 85.2542 144.896 85.0911 144.47C84.7855 143.67 84.4826 142.868 84.1771 142.067C83.9632 141.506 83.7505 140.943 83.5313 140.383C83.4383 140.144 83.3354 139.91 83.227 139.678C83.1983 139.617 83.1301 139.574 83.0459 139.487C82.9589 139.662 82.8787 139.794 82.8259 139.935C82.6287 140.467 82.4428 141.003 82.2482 141.535C81.9099 142.466 81.569 143.396 81.228 144.327C81.0167 144.901 80.8155 145.478 80.5855 146.045C80.4558 146.366 80.2378 146.614 79.8514 146.642C79.7611 146.648 79.6515 146.659 79.6167 146.783C79.7979 146.839 80.9365 146.873 81.5155 146.84C81.5643 146.837 81.6111 146.809 81.6779 146.787C81.577 146.616 81.4012 146.668 81.2694 146.581C81.24 146.531 81.2012 146.465 81.1598 146.394C81.3062 145.633 81.6124 144.924 81.8417 144.192C81.8598 144.135 81.9253 144.093 81.9708 144.042H83.9404C83.9899 144.101 84.0501 144.144 84.0721 144.203C84.371 144.98 84.6652 145.76 84.9507 146.514C84.9099 146.622 84.8818 146.697 84.8517 146.776C85.0643 146.83 86.2544 146.873 86.6021 146.84C86.6502 146.836 86.6957 146.809 86.7598 146.786C86.6769 146.652 86.5639 146.648 86.4563 146.636ZM82.059 143.635C82.2957 142.738 82.6153 141.893 82.9489 141.028C83.0806 141.389 83.2344 141.742 83.3387 142.111C83.4838 142.619 83.7526 143.088 83.8261 143.617C83.5667 143.694 82.4916 143.707 82.059 143.635Z" fill="#6293CD"/>
<path d="M69.8663 146.644C69.5487 146.624 69.3675 146.422 69.2238 146.173C69.1456 146.038 69.074 145.898 69.0152 145.753C68.4623 144.39 67.9154 143.026 67.3611 141.663C67.2147 141.304 67.083 140.936 66.8423 140.579C66.6263 140.65 66.5902 140.829 66.5301 140.972C66.3422 141.423 66.1643 141.878 65.9898 142.333C65.6676 143.175 65.3547 144.021 65.0304 144.862C64.8626 145.298 64.6868 145.731 64.5022 146.161C64.3866 146.432 64.1987 146.623 63.8771 146.642C63.7889 146.646 63.6765 146.658 63.6411 146.782C63.8109 146.834 64.9522 146.87 65.3741 146.836C65.4109 146.834 65.4463 146.802 65.4811 146.785C65.4369 146.573 65.2049 146.693 65.1066 146.49C65.0759 146.401 65.0879 146.249 65.1428 146.098C65.2945 145.68 65.4456 145.26 65.6007 144.843C65.6275 144.773 65.6743 144.71 65.7251 144.62C66.377 144.625 67.0288 144.601 67.6967 144.637C67.902 145.138 68.0986 145.623 68.2998 146.106C68.3887 146.319 68.4917 146.528 68.3794 146.785C68.6916 146.868 68.9824 146.834 69.2666 146.834C69.542 146.834 69.8288 146.906 70.1678 146.753C70.0241 146.699 69.9465 146.65 69.8663 146.644ZM65.8909 144.191C65.9076 143.925 66.4886 142.295 66.6965 141.989C66.98 142.739 67.2454 143.438 67.5102 144.136C67.2976 144.241 66.383 144.266 65.8909 144.191Z" fill="#6293CD"/>
<path d="M121.633 140.593C121.584 141.003 121.546 141.33 121.507 141.653C121.342 141.665 121.333 141.568 121.318 141.481C121.282 141.271 121.138 141.185 120.948 141.155C120.563 141.094 120.177 141.06 119.787 141.076C119.659 141.08 119.54 141.091 119.505 141.169C119.505 141.683 119.507 142.139 119.504 142.595C119.502 142.739 119.478 142.884 119.48 143.028C119.482 143.146 119.506 143.263 119.522 143.407C120.175 143.385 120.808 143.516 121.431 143.218C121.507 143.605 121.397 143.963 121.351 144.349C121.211 144.289 121.205 144.182 121.177 144.092C121.129 143.937 121.029 143.836 120.867 143.833C120.434 143.825 120 143.829 119.567 143.831C119.548 143.831 119.53 143.853 119.504 143.87C119.494 143.894 119.47 143.924 119.471 143.954C119.48 144.478 119.494 145.001 119.504 145.524C119.508 145.68 119.502 145.837 119.508 145.993C119.52 146.257 119.568 146.315 119.823 146.393C120.259 146.528 120.697 146.535 121.138 146.428C121.373 146.372 121.531 146.239 121.604 146C121.63 145.913 121.626 145.79 121.804 145.768C121.806 145.774 121.835 145.804 121.833 145.833C121.807 146.163 121.774 146.493 121.635 146.806C121.341 146.867 121.065 146.945 120.772 146.854C120.68 146.826 120.573 146.841 120.473 146.841C119.783 146.839 119.093 146.84 118.403 146.836C118.33 146.836 118.258 146.818 118.178 146.807C118.207 146.595 118.403 146.673 118.487 146.587C118.598 146.435 118.645 146.269 118.647 146.084C118.661 144.824 118.685 143.564 118.695 142.305C118.697 141.95 118.659 141.595 118.643 141.239C118.635 141.054 118.526 140.956 118.365 140.907C118.263 140.875 118.156 140.86 118.011 140.829C118.066 140.76 118.088 140.703 118.126 140.69C118.187 140.669 118.259 140.665 118.323 140.676C118.942 140.784 119.566 140.722 120.188 140.728C120.652 140.733 121.121 140.791 121.632 140.594L121.633 140.593Z" fill="#6293CD"/>
<path d="M53.9363 144.331C53.7913 144.258 53.8367 144.095 53.7425 143.937C53.6749 143.912 53.5666 143.838 53.4556 143.833C53.0445 143.817 52.6326 143.824 52.2214 143.825C52.1913 143.825 52.1613 143.848 52.1104 143.87C52.1011 143.949 52.083 144.035 52.083 144.121C52.0804 144.645 52.0817 145.17 52.0824 145.694C52.0824 145.739 52.079 145.784 52.085 145.827C52.1425 146.219 52.1579 146.374 52.6306 146.445C52.987 146.499 53.3326 146.514 53.687 146.445C53.9798 146.388 54.1717 146.242 54.2439 145.946C54.2639 145.864 54.2753 145.764 54.4291 145.776C54.4257 146.131 54.4144 146.475 54.2512 146.808C53.9671 146.866 53.691 146.948 53.3988 146.855C53.3172 146.829 53.2223 146.842 53.1334 146.842C52.4213 146.841 51.7086 146.842 50.9966 146.838C50.9164 146.838 50.8368 146.818 50.7345 146.804C50.8274 146.624 50.9859 146.658 51.1042 146.602C51.2206 146.418 51.2647 146.218 51.2707 146.002C51.2801 145.636 51.3115 145.271 51.3168 144.906C51.3208 144.641 51.2948 144.377 51.2881 144.113C51.2834 143.926 51.2861 143.739 51.2901 143.552C51.2995 143.111 51.3208 142.67 51.3188 142.229C51.3168 141.898 51.2834 141.567 51.2674 141.237C51.258 141.051 51.1457 140.956 50.9859 140.907C50.8843 140.875 50.7786 140.858 50.6182 140.821C50.7031 140.75 50.7398 140.7 50.7887 140.682C50.8375 140.664 50.9003 140.667 50.9538 140.676C51.5502 140.784 52.1519 140.713 52.7509 140.731C52.9622 140.737 53.1742 140.74 53.3854 140.73C53.6495 140.717 53.9123 140.689 54.1971 140.664C54.266 140.995 54.1443 141.32 54.1215 141.655C53.9664 141.66 53.9537 141.565 53.9404 141.479C53.9109 141.282 53.7779 141.191 53.602 141.161C53.1407 141.082 52.6761 141.052 52.2087 141.088C52.188 141.09 52.1686 141.106 52.1312 141.123C52.0349 141.358 52.0977 141.616 52.087 141.867C52.0763 142.123 52.0763 142.38 52.0857 142.637C52.0951 142.886 52.0289 143.147 52.1526 143.377C52.7763 143.469 53.455 143.417 54.04 143.238C54.0981 143.477 54.0406 144.105 53.939 144.33L53.9363 144.331Z" fill="#6293CD"/>
<path d="M142.649 140.839C142.653 140.787 142.655 140.754 142.661 140.686C143.823 140.732 144.985 140.792 146.166 140.664C146.25 140.989 146.1 141.314 146.105 141.646C145.94 141.671 145.928 141.572 145.915 141.487C145.886 141.29 145.758 141.191 145.581 141.162C145.11 141.084 144.635 141.042 144.168 141.091C144.041 141.188 144.059 141.317 144.056 141.437C144.021 143 144.029 143.141 144.166 143.408C144.771 143.393 145.395 143.499 146.006 143.218C146.103 143.407 146.039 143.587 146.014 143.766C145.99 143.951 145.978 144.137 145.959 144.34C145.806 144.302 145.805 144.19 145.778 144.103C145.73 143.949 145.639 143.839 145.475 143.834C145.042 143.822 144.61 143.822 144.177 143.819C144.148 143.819 144.118 143.842 144.072 143.861C144.066 143.946 144.056 144.033 144.056 144.12C144.055 144.634 144.052 145.147 144.058 145.661C144.06 145.805 144.088 145.948 144.107 146.091C144.13 146.27 144.247 146.369 144.411 146.406C144.836 146.503 145.263 146.542 145.697 146.437C145.958 146.373 146.136 146.243 146.21 145.974C146.232 145.89 146.223 145.754 146.406 145.781C146.396 146.13 146.396 146.477 146.223 146.807C145.938 146.865 145.661 146.947 145.369 146.853C145.287 146.827 145.192 146.841 145.103 146.84C144.402 146.838 143.7 146.839 142.998 146.836C142.926 146.836 142.855 146.817 142.77 146.805C142.814 146.6 142.995 146.664 143.107 146.583C143.2 146.443 143.232 146.274 143.241 146.092C143.31 144.754 143.296 143.416 143.292 142.077C143.291 141.789 143.257 141.5 143.236 141.212C143.224 141.042 143.113 140.955 142.965 140.909C142.862 140.878 142.754 140.862 142.647 140.838L142.649 140.839Z" fill="#6293CD"/>
<path d="M150.302 146.465C150.55 146.27 150.746 146.065 150.82 145.743C150.885 145.466 150.82 145.224 150.701 145.005C150.592 144.805 150.425 144.639 150.235 144.491C149.709 144.082 149.154 143.71 148.688 143.223C148.386 142.906 148.214 142.531 148.21 142.114C148.205 141.685 148.347 141.282 148.718 141.002C149.067 140.738 149.451 140.605 149.891 140.587C150.371 140.566 150.836 140.603 151.304 140.762C151.366 141.117 151.315 141.451 151.235 141.803C151.093 141.74 151.092 141.614 151.067 141.518C151 141.261 150.825 141.115 150.59 141.048C150.247 140.952 149.904 140.905 149.541 140.999C148.797 141.192 148.679 141.922 149.064 142.376C149.277 142.628 149.531 142.857 149.804 143.043C150.255 143.351 150.7 143.662 151.072 144.068C151.61 144.654 151.699 145.549 151.264 146.168C150.937 146.633 150.493 146.903 149.915 146.913C149.559 146.919 149.201 146.93 148.847 146.904C148.575 146.885 148.288 146.861 148.065 146.608C148.073 146.233 147.992 145.836 148.136 145.454C148.289 145.456 148.314 145.542 148.317 145.635C148.331 146.148 148.656 146.376 149.097 146.501C149.495 146.613 149.889 146.581 150.304 146.465H150.302Z" fill="#6293CD"/>
<path d="M156.664 140.766C156.687 141.131 156.685 141.461 156.588 141.793C156.433 141.769 156.445 141.637 156.427 141.558C156.355 141.258 156.156 141.117 155.878 141.037C155.527 140.936 155.183 140.906 154.828 141.015C154.256 141.192 154.031 141.74 154.331 142.262C154.502 142.559 154.763 142.768 155.033 142.965C155.312 143.167 155.614 143.342 155.878 143.562C156.124 143.767 156.36 143.995 156.554 144.25C156.961 144.787 157.002 145.397 156.712 145.988C156.421 146.583 155.902 146.892 155.232 146.913C154.942 146.923 154.652 146.93 154.363 146.913C154.143 146.9 153.922 146.861 153.707 146.809C153.606 146.785 153.519 146.704 153.416 146.644C153.397 146.241 153.364 145.855 153.498 145.434C153.561 145.511 153.636 145.56 153.645 145.619C153.683 145.88 153.744 146.124 153.97 146.29C154.222 146.475 154.516 146.534 154.816 146.563C154.959 146.577 155.105 146.567 155.249 146.554C156.001 146.49 156.447 145.669 156.026 144.954C155.868 144.685 155.612 144.52 155.384 144.33C155.101 144.096 154.792 143.896 154.506 143.666C154.238 143.449 153.986 143.213 153.799 142.915C153.497 142.434 153.463 141.73 153.841 141.216C154.009 140.988 154.254 140.845 154.512 140.735C154.74 140.639 154.976 140.579 155.226 140.595C155.592 140.619 155.958 140.633 156.322 140.664C156.429 140.673 156.533 140.725 156.663 140.766L156.664 140.766Z" fill="#6293CD"/>
<path d="M124.262 141.178C124.119 140.876 123.874 140.89 123.665 140.854C123.669 140.787 123.67 140.756 123.675 140.686C123.806 140.686 123.938 140.669 124.064 140.689C124.484 140.756 124.901 140.754 125.322 140.689C125.455 140.668 125.611 140.623 125.718 140.803C125.591 140.936 125.411 140.833 125.246 140.935C125.096 141.075 125.08 141.308 125.078 141.524C125.068 142.762 125.07 144 125.075 145.238C125.076 145.471 125.1 145.705 125.137 145.935C125.158 146.074 125.222 146.206 125.266 146.336C125.767 146.483 126.246 146.544 126.737 146.465C126.792 146.456 126.845 146.434 126.9 146.434C127.235 146.427 127.385 146.214 127.474 145.927C127.496 145.855 127.533 145.789 127.579 145.686C127.64 145.751 127.719 145.798 127.714 145.835C127.674 146.12 127.622 146.404 127.563 146.686C127.553 146.734 127.496 146.771 127.462 146.812C127.139 146.872 126.827 146.95 126.502 146.853C126.42 146.828 126.325 146.844 126.236 146.843C125.491 146.841 124.745 146.841 124.001 146.838C123.937 146.838 123.873 146.826 123.797 146.818C123.811 146.605 124.002 146.673 124.108 146.582C124.249 146.377 124.261 146.123 124.261 145.866C124.261 144.516 124.262 143.166 124.263 141.816C124.263 141.583 124.263 141.349 124.263 141.179L124.262 141.178Z" fill="#6293CD"/>
<path d="M129.21 146.801C129.262 146.587 129.451 146.675 129.574 146.554C129.7 146.356 129.727 146.088 129.73 145.823C129.739 144.741 129.737 143.658 129.738 142.576C129.738 142.219 129.74 141.863 129.736 141.505C129.733 141.241 129.73 141.241 129.555 140.943C129.422 140.912 129.264 140.875 129.068 140.83C129.122 140.77 129.153 140.701 129.197 140.692C129.293 140.671 129.398 140.664 129.494 140.68C129.948 140.758 130.398 140.756 130.852 140.68C130.962 140.662 131.096 140.639 131.197 140.805C131.006 140.861 130.833 140.912 130.692 140.954C130.558 141.099 130.547 141.244 130.547 141.39C130.548 142.841 130.55 144.291 130.551 145.742C130.551 145.949 130.609 146.137 130.738 146.33C131.202 146.497 131.694 146.528 132.195 146.471C132.206 146.469 132.217 146.462 132.227 146.461C132.643 146.444 132.877 146.22 132.964 145.821C132.97 145.792 132.997 145.764 133.02 145.742C133.034 145.729 133.06 145.731 133.081 145.727C133.188 145.966 133.149 146.314 132.96 146.786C132.697 146.901 132.414 146.916 132.124 146.884C131.97 146.866 131.816 146.844 131.661 146.843C130.927 146.838 130.192 146.842 129.458 146.839C129.378 146.839 129.297 146.815 129.209 146.801H129.21Z" fill="#6293CD"/>
</g>
<defs>
<clipPath id="clip0_9_154">
<rect width="92.9355" height="97.9785" fill="white" transform="translate(54.0322)"/>
</clipPath>
<clipPath id="clip1_9_154">
<rect width="201" height="27.3763" fill="white" transform="translate(0 119.591)"/>
</clipPath>
</defs>
</svg>
