<svg width="87" height="70" viewBox="0 0 87 70" fill="none" xmlns="http://www.w3.org/2000/svg">
<path fill-rule="evenodd" clip-rule="evenodd" d="M43.3906 3.79892C65.6135 3.79892 83.6297 21.8338 83.6297 44.0796C83.6297 44.949 83.6001 45.811 83.5458 46.6679C74.0047 44.7489 70.8245 45.1688 67.0026 47.5744C62.786 50.227 59.233 47.3941 55.7395 46.0086C52.2457 44.6228 52.7268 46.9716 51.7029 49.9281C50.679 52.8821 48.3893 51.3138 46.5216 51.4941C44.6538 51.6743 43.7508 53.9688 41.2218 53.3637C38.6904 52.7611 34.9574 54.3294 35.9196 58.7899C36.8843 63.253 40.2571 72.5396 22.4259 69.1633C17.2447 68.1802 12.5099 66.2414 8.40192 63.9839C5.06113 58.1133 3.15152 51.3186 3.15152 44.0796C3.15152 21.8338 21.1677 3.79892 43.3906 3.79892ZM7.29657 64.2408C7.51123 64.6261 7.37305 65.1151 6.98813 65.33C6.60321 65.5475 6.11221 65.4092 5.89749 65.0239C4.11868 61.8625 2.72711 58.4467 1.78705 54.8456C0.874207 51.3557 0.390625 47.6955 0.390625 43.9337C0.390625 32.0489 5.20432 21.2854 12.9836 13.4955C20.7654 5.70566 31.518 0.886963 43.3906 0.886963C55.2632 0.886963 66.0157 5.70566 73.7975 13.4955C81.5769 21.2854 86.3906 32.0489 86.3906 43.9337C86.3906 44.3784 86.3808 44.8871 86.3609 45.4502C86.3438 45.9863 86.3166 46.4975 86.2845 46.9767C86.2549 47.4162 85.87 47.7522 85.4308 47.7226C84.9892 47.693 84.6561 47.3077 84.6857 46.868C84.7202 46.3519 84.7473 45.8603 84.7622 45.3983C84.7769 44.9736 84.7844 44.4845 84.7844 43.9337C84.7844 32.4886 80.1508 22.1301 72.6626 14.6316C65.1718 7.13324 54.8216 2.49484 43.3906 2.49484C31.9596 2.49484 21.6093 7.13324 14.1211 14.6316C6.63043 22.1301 1.99677 32.4886 1.99677 43.9337C1.99677 47.5719 2.4631 51.0964 3.33646 54.4454C4.23947 57.9033 5.57922 61.1906 7.29657 64.2408ZM32.7195 18.697L32.8158 18.7267C30.198 20.1616 28.1156 22.5896 27.1903 25.6817C25.3275 31.9132 28.8631 38.4779 35.0881 40.3427C37.3285 41.0145 39.6107 40.9848 41.703 40.3821C38.3721 46.5889 31.0443 49.8071 24.0421 47.7102C16.0381 45.3095 11.4934 36.8701 13.8892 28.8604C16.2849 20.8482 24.7181 16.2988 32.7195 18.697ZM71.1526 29.1839C70.4346 31.5279 69.5364 32.4392 67.1778 33.1653C69.5364 33.8915 70.4346 34.8029 71.1526 37.1443C71.873 34.8029 72.7686 33.8915 75.1299 33.1653C72.7686 32.4392 71.873 31.5279 71.1526 29.1839ZM45.6136 14.8341C44.1308 19.6602 42.2828 21.5373 37.4197 23.034C42.2828 24.5307 44.1308 26.4077 45.6136 31.2364C47.094 26.4077 48.942 24.5307 53.805 23.034C48.942 21.5373 47.094 19.6602 45.6136 14.8341Z" fill="white"/>
</svg>
