<svg width="51" height="45" viewBox="0 0 51 45" fill="none" xmlns="http://www.w3.org/2000/svg">
<path d="M16.125 37.8574C17.7852 37.8574 19.25 39.3223 19.25 40.9824C19.25 42.7402 17.7852 44.1074 16.125 44.1074H9.875C4.60156 44.1074 0.5 40.0059 0.5 34.7324V9.73242C0.5 4.55664 4.60156 0.357422 9.875 0.357422H16.125C17.7852 0.357422 19.25 1.82227 19.25 3.48242C19.25 5.24023 17.7852 6.60742 16.125 6.60742H9.875C8.11719 6.60742 6.75 8.07227 6.75 9.73242V34.7324C6.75 36.4902 8.11719 37.8574 9.875 37.8574H16.125ZM49.5234 20.084C50.793 21.2559 50.793 23.3066 49.5234 24.4785L37.0234 36.9785C35.8516 38.248 33.8008 38.248 32.6289 36.9785C31.3594 35.8066 31.3594 33.7559 32.6289 32.584L39.7578 25.3574H19.25C17.4922 25.3574 16.125 23.9902 16.125 22.2324C16.125 20.5723 17.4922 19.1074 19.25 19.1074H39.7578L32.6289 11.9785C31.3594 10.8066 31.3594 8.75586 32.6289 7.58398C33.8008 6.31445 35.8516 6.31445 37.0234 7.58398L49.5234 20.084Z" fill="white"/>
</svg>
