<svg width="17" height="14" viewBox="0 0 17 14" fill="none" xmlns="http://www.w3.org/2000/svg">
<path d="M9 0C13.4062 0 17 2.9375 17 6.5C17 10.0938 13.4062 13 9 13C7.78125 13 6.65625 12.7812 5.625 12.4062C4.875 13.0312 3.3125 14 1.25 14C1.125 14 1.03125 13.9688 1 13.875C0.96875 13.7812 1 13.6562 1.0625 13.5938C1.0625 13.5625 2.375 12.1875 2.78125 10.5938C1.65625 9.46875 1 8.0625 1 6.5C1 2.9375 4.5625 0 9 0ZM6.21875 7.5C6.40625 6.46875 5.40625 6.1875 4.875 6.03125C4.53125 5.9375 4.21875 5.875 4.25 5.6875C4.25 5.5625 4.5625 5.46875 4.90625 5.53125C5.03125 5.5625 5.1875 5.59375 5.3125 5.65625C5.59375 5.75 5.875 5.59375 5.96875 5.34375C6.03125 5.0625 5.90625 4.78125 5.65625 4.6875C5.46875 4.625 5.25 4.5625 5.0625 4.53125C4.09375 4.40625 3.375 4.78125 3.25 5.53125C3.0625 6.5625 4.09375 6.84375 4.46875 6.96875C4.875 7.09375 5.25 7.15625 5.21875 7.34375C5.21875 7.46875 4.90625 7.5625 4.5625 7.5C4.34375 7.46875 4.125 7.375 3.90625 7.28125C3.65625 7.1875 3.40625 7.34375 3.3125 7.625C3.21875 7.875 3.40625 8.1875 3.65625 8.28125C3.875 8.34375 4.15625 8.4375 4.375 8.46875C4.5 8.5 4.65625 8.5 4.78125 8.5C5.5625 8.5 6.09375 8.125 6.21875 7.5ZM11 8V5C11 4.8125 10.8438 4.59375 10.6562 4.53125C10.4375 4.46875 10.2188 4.53125 10.0938 4.71875L9 6.1875L7.875 4.71875C7.75 4.53125 7.53125 4.46875 7.3125 4.53125C7.125 4.625 7 4.8125 7 5V8C7 8.28125 7.21875 8.5 7.5 8.5C7.75 8.5 8 8.28125 8 8V6.5L8.59375 7.3125C8.78125 7.5625 9.1875 7.5625 9.375 7.3125L10 6.5V8C10 8.28125 10.2188 8.5 10.5 8.5C10.75 8.5 11 8.28125 11 8ZM14.7188 7.5C14.9062 6.46875 13.9062 6.1875 13.375 6.03125C13.0312 5.9375 12.7188 5.875 12.7188 5.6875C12.75 5.5625 13.0312 5.46875 13.375 5.53125C13.5 5.5625 13.6562 5.59375 13.7812 5.65625C14.0625 5.75 14.3438 5.59375 14.4375 5.34375C14.5312 5.0625 14.375 4.78125 14.125 4.6875C13.9375 4.625 13.7188 4.5625 13.5312 4.5625C12.5938 4.40625 11.8438 4.78125 11.7188 5.53125C11.5625 6.5625 12.5625 6.84375 12.9375 6.96875C13.375 7.09375 13.75 7.15625 13.6875 7.34375C13.6875 7.46875 13.375 7.5625 13.0312 7.5C12.8438 7.46875 12.5938 7.375 12.375 7.28125C12.125 7.1875 11.875 7.34375 11.7812 7.625C11.6875 7.875 11.875 8.1875 12.125 8.28125C12.3438 8.34375 12.625 8.4375 12.875 8.46875C13 8.5 13.1562 8.5 13.2812 8.5C14.0625 8.5 14.5938 8.125 14.7188 7.5Z" fill="#2A378F"/>
</svg>
