<svg width="20" height="20" viewBox="0 0 20 20" fill="none" xmlns="http://www.w3.org/2000/svg">
<path d="M11.875 11.875H8.125C4.32812 11.875 1.25 14.9531 1.25 18.75C1.25 19.4402 1.80977 20 2.5 20H17.5C18.1902 20 18.75 19.4402 18.75 18.75C18.75 14.9531 15.6719 11.875 11.875 11.875ZM3.16367 18.125C3.47227 15.6602 5.57812 13.75 8.125 13.75H11.875C14.4203 13.75 16.5273 15.6621 16.8359 18.125H3.16367ZM10 10C12.7613 10 15 7.76133 15 5C15 2.23867 12.7613 0 10 0C7.23867 0 5 2.23867 5 5C5 7.76172 7.23828 10 10 10ZM10 1.875C11.723 1.875 13.125 3.27695 13.125 5C13.125 6.72305 11.723 8.125 10 8.125C8.27695 8.125 6.875 6.72266 6.875 5C6.875 3.27695 8.27734 1.875 10 1.875Z" fill="#9D8EA9"/>
</svg>
