<svg width="76" height="30" viewBox="0 0 76 24" fill="none" xmlns="http://www.w3.org/2000/svg">
<path d="M48.4531 16L48.5 23.5C48.5 25.1875 47.1406 26.5 45.5 26.5H30.5C28.8125 26.5 27.5 25.1875 27.5 23.5V16H26C25.1562 16 24.5 15.3438 24.5 14.5C24.5 14.0781 24.6406 13.7031 24.9688 13.375L36.9688 2.92188C37.2969 2.59375 37.6719 2.5 38 2.5C38.3281 2.5 38.7031 2.64062 38.9844 2.875L44 7.23438V5.5C44 4.70312 44.6562 4 45.5 4H47C47.7969 4 48.5 4.70312 48.5 5.5V11.1719L50.9375 13.375C51.3125 13.7031 51.5 14.0781 51.4531 14.5C51.4531 15.3438 50.75 16 49.9531 16H48.4531ZM43.25 14.125C43.25 13.75 42.875 13.375 42.5 13.375H39.875V10.75C39.875 10.375 39.5 10 39.125 10H36.875C36.4531 10 36.125 10.375 36.125 10.75V13.375H33.5C33.0781 13.375 32.75 13.75 32.75 14.125V16.375C32.75 16.7969 33.0781 17.125 33.5 17.125H36.125V19.75C36.125 20.1719 36.4531 20.5 36.875 20.5H39.125C39.5 20.5 39.875 20.1719 39.875 19.75V17.125H42.5C42.875 17.125 43.25 16.7969 43.25 16.375V14.125Z" fill="#2A378F"/>
</svg>
