<svg width="76" height="30" viewBox="0 0 76 24" fill="none" xmlns="http://www.w3.org/2000/svg">
<g opacity="0.3">
<path d="M49.9531 20.6406L48.8281 25.375C48.6875 26.0781 48.125 26.5469 47.4219 26.5469C35.6094 26.5 26 16.8906 26 5.07812C26 4.375 26.4219 3.8125 27.125 3.67188L31.8594 2.54688C32.5156 2.40625 33.2188 2.78125 33.5 3.39062L35.7031 8.5C35.9375 9.10938 35.7969 9.8125 35.2812 10.1875L32.75 12.25C34.3438 15.4844 36.9688 18.1094 40.25 19.7031L42.3125 17.1719C42.6875 16.7031 43.3906 16.5156 44 16.75L49.1094 18.9531C49.7188 19.2812 50.0938 19.9844 49.9531 20.6406Z" fill="#2A378F"/>
</g>
</svg>
