<svg width="76" height="30" viewBox="0 0 76 24" fill="none" xmlns="http://www.w3.org/2000/svg">
<g opacity="0.3">
<path d="M47.75 6.5C48.9688 6.5 50 7.53125 50 8.75V22.25C50 23.5156 48.9688 24.5 47.75 24.5H28.25C26.9844 24.5 26 23.5156 26 22.25V8.75C26 7.53125 26.9844 6.5 28.25 6.5H32V4.25C32 3.03125 32.9844 2 34.25 2H41.75C42.9688 2 44 3.03125 44 4.25V6.5H47.75ZM34.25 4.25V6.5H41.75V4.25H34.25ZM43.25 16.7188V14.2812C43.25 13.9062 42.875 13.5312 42.5 13.5312H39.875V11C39.875 10.625 39.5469 10.25 39.1719 10.25H36.7344C36.3125 10.25 35.9844 10.625 35.9844 11V13.5781H33.5C33.0781 13.5781 32.75 13.9531 32.75 14.3281V16.7656C32.75 17.1875 33.0781 17.5156 33.5 17.5156H36.0312V20C36.0312 20.4219 36.4062 20.75 36.7812 20.75H39.2188C39.5938 20.75 39.9688 20.4219 39.9688 20V17.4688H42.5C42.875 17.4688 43.25 17.1406 43.25 16.7188Z" fill="#2A378F"/>
</g>
</svg>
